# MagicaVoxel @ Ephtracy

# group
o 

# material
mtllib 1-0.mtl
usemtl palette

# normals
vn -1 0 0
vn 1 0 0
vn 0 0 1
vn 0 0 -1
vn 0 -1 0
vn 0 1 0

# texcoords
vt 0.0136719 0.5
vt 0.0175781 0.5
vt 0.587891 0.5
vt 0.958984 0.5

# verts
v -3.9 0 -9.9
v -3.9 0 -10.2
v -3.9 0.7 -10.1
v -3.9 0.7 -10.2
v -3.9 0.8 -10.1
v -3.9 0.8 -10.2
v -3.9 0.9 -10.1
v -3.9 0.9 -10.2
v -3.9 1 -10.1
v -3.9 1 -10.2
v -3.9 1.1 -10.1
v -3.9 1.1 -10.2
v -3.9 1.2 -10.1
v -3.9 1.2 -10.2
v -3.9 1.3 -10.1
v -3.9 1.3 -10.2
v -3.9 2 -9.9
v -3.9 2 -10.2
v 1.1 0 -9.9
v 1.1 0 -10.2
v 1.1 0.8 -10.1
v 1.1 0.8 -10.2
v 1.1 0.9 -10.1
v 1.1 0.9 -10.2
v 1.1 1 -10.1
v 1.1 1 -10.2
v 1.1 1.1 -10.1
v 1.1 1.1 -10.2
v 1.1 1.2 -10.1
v 1.1 1.2 -10.2
v 1.1 1.3 -10.1
v 1.1 1.3 -10.2
v 1.1 2 -9.9
v 1.1 2 -10.2
v -3.9 0 -9.9
v -3.9 2 -9.9
v 1.1 0 -9.9
v 1.1 2 -9.9
v -3.9 0 -10.2
v -3.9 0.7 -10.2
v -3.9 0.8 -10.2
v -3.9 0.9 -10.2
v -3.9 1 -10.2
v -3.9 1.1 -10.2
v -3.9 1.2 -10.2
v -3.9 1.3 -10.2
v -3.9 2 -10.2
v -3.8 0.6 -10.2
v -3.8 0.7 -10.2
v -3.8 0.8 -10.2
v -3.8 0.9 -10.2
v -3.8 1 -10.2
v -3.8 1.1 -10.2
v -3.8 1.2 -10.2
v -3.8 1.3 -10.2
v -3.7 0.5 -10.2
v -3.7 0.6 -10.2
v -3.7 0.7 -10.2
v -3.6 0.4 -10.2
v -3.6 0.5 -10.2
v -3.6 0.6 -10.2
v -3.5 0.3 -10.2
v -3.5 0.4 -10.2
v -3.4 0.3 -10.2
v -3.4 0.4 -10.2
v -3.3 0.4 -10.2
v -3.3 0.5 -10.2
v -3.3 0.6 -10.2
v -3.2 0.5 -10.2
v -3.2 0.6 -10.2
v -3.2 0.7 -10.2
v -3.1 0.6 -10.2
v -3.1 0.7 -10.2
v -3.1 0.8 -10.2
v -3 0.7 -10.2
v -3 0.8 -10.2
v -3 0.9 -10.2
v -3 1 -10.2
v -3 1.1 -10.2
v -3 1.2 -10.2
v -3 1.3 -10.2
v -2.9 0.7 -10.2
v -2.9 0.8 -10.2
v -2.9 0.9 -10.2
v -2.9 1 -10.2
v -2.9 1.1 -10.2
v -2.9 1.2 -10.2
v -2.9 1.3 -10.2
v -2.8 0.6 -10.2
v -2.8 0.7 -10.2
v -2.8 0.8 -10.2
v -2.7 0.5 -10.2
v -2.7 0.6 -10.2
v -2.7 0.7 -10.2
v -2.6 0.4 -10.2
v -2.6 0.5 -10.2
v -2.5 0.4 -10.2
v -2.5 0.5 -10.2
v -2.4 0.5 -10.2
v -2.4 0.6 -10.2
v -2.4 0.7 -10.2
v -2.3 0.6 -10.2
v -2.3 0.7 -10.2
v -2.3 0.8 -10.2
v -2.2 0.7 -10.2
v -2.2 0.8 -10.2
v -2.2 0.9 -10.2
v -2.2 1 -10.2
v -2.2 1.1 -10.2
v -2.2 1.2 -10.2
v -2.2 1.3 -10.2
v -2.1 0.7 -10.2
v -2.1 0.8 -10.2
v -2.1 0.9 -10.2
v -2.1 1 -10.2
v -2.1 1.1 -10.2
v -2.1 1.2 -10.2
v -2.1 1.3 -10.2
v -2 0.5 -10.2
v -2 0.6 -10.2
v -2 0.7 -10.2
v -2 0.8 -10.2
v -1.9 0.5 -10.2
v -1.9 0.6 -10.2
v -1.9 0.7 -10.2
v -1.9 0.8 -10.2
v -1.8 0.7 -10.2
v -1.8 0.8 -10.2
v -1.8 0.9 -10.2
v -1.8 1 -10.2
v -1.8 1.1 -10.2
v -1.8 1.2 -10.2
v -1.8 1.3 -10.2
v -1.7 0.5 -10.2
v -1.7 0.6 -10.2
v -1.7 0.8 -10.2
v -1.7 0.9 -10.2
v -1.7 1 -10.2
v -1.7 1.1 -10.2
v -1.7 1.2 -10.2
v -1.7 1.3 -10.2
v -1.7 1.4 -10.2
v -1.7 1.5 -10.2
v -1.6 0.5 -10.2
v -1.6 0.6 -10.2
v -1.6 0.7 -10.2
v -1.6 0.8 -10.2
v -1.6 0.9 -10.2
v -1.6 1.1 -10.2
v -1.6 1.3 -10.2
v -1.6 1.4 -10.2
v -1.6 1.5 -10.2
v -1.5 0.7 -10.2
v -1.5 0.8 -10.2
v -1.5 0.9 -10.2
v -1.5 1.1 -10.2
v -1.4 0.6 -10.2
v -1.4 1.1 -10.2
v -1.3 0.5 -10.2
v -1.3 0.6 -10.2
v -1.3 1.1 -10.2
v -1.3 1.3 -10.2
v -1.3 1.4 -10.2
v -1.3 1.5 -10.2
v -1.2 0.5 -10.2
v -1.2 0.6 -10.2
v -1.2 0.8 -10.2
v -1.2 0.9 -10.2
v -1.2 1 -10.2
v -1.2 1.1 -10.2
v -1.2 1.2 -10.2
v -1.2 1.3 -10.2
v -1.2 1.4 -10.2
v -1.2 1.5 -10.2
v -1.1 0.7 -10.2
v -1.1 0.8 -10.2
v -1.1 0.9 -10.2
v -1.1 1 -10.2
v -1.1 1.1 -10.2
v -1.1 1.2 -10.2
v -1.1 1.3 -10.2
v -1 0.5 -10.2
v -1 0.6 -10.2
v -1 0.7 -10.2
v -1 0.8 -10.2
v -0.9 0.5 -10.2
v -0.9 0.6 -10.2
v -0.9 0.7 -10.2
v -0.9 0.8 -10.2
v -0.8 0.7 -10.2
v -0.8 0.8 -10.2
v -0.8 0.9 -10.2
v -0.8 1 -10.2
v -0.8 1.1 -10.2
v -0.8 1.2 -10.2
v -0.8 1.3 -10.2
v -0.7 0.7 -10.2
v -0.7 0.8 -10.2
v -0.7 0.9 -10.2
v -0.7 1 -10.2
v -0.7 1.1 -10.2
v -0.7 1.2 -10.2
v -0.7 1.3 -10.2
v -0.6 0.6 -10.2
v -0.6 0.7 -10.2
v -0.6 0.8 -10.2
v -0.5 0.5 -10.2
v -0.5 0.6 -10.2
v -0.5 0.7 -10.2
v -0.4 0.4 -10.2
v -0.4 0.5 -10.2
v -0.3 0.4 -10.2
v -0.3 0.5 -10.2
v -0.2 0.5 -10.2
v -0.2 0.6 -10.2
v -0.2 0.7 -10.2
v -0.0999999 0.6 -10.2
v -0.0999999 0.7 -10.2
v -0.0999999 0.8 -10.2
v 0 0.7 -10.2
v 0 0.8 -10.2
v 0 0.9 -10.2
v 0 1 -10.2
v 0 1.1 -10.2
v 0 1.2 -10.2
v 0 1.3 -10.2
v 0.0999999 0.7 -10.2
v 0.0999999 0.8 -10.2
v 0.0999999 0.9 -10.2
v 0.0999999 1 -10.2
v 0.0999999 1.1 -10.2
v 0.0999999 1.2 -10.2
v 0.0999999 1.3 -10.2
v 0.2 0.6 -10.2
v 0.2 0.7 -10.2
v 0.2 0.8 -10.2
v 0.3 0.5 -10.2
v 0.3 0.6 -10.2
v 0.3 0.7 -10.2
v 0.4 0.4 -10.2
v 0.4 0.5 -10.2
v 0.4 0.6 -10.2
v 0.5 0.3 -10.2
v 0.5 0.4 -10.2
v 0.6 0.3 -10.2
v 0.6 0.4 -10.2
v 0.7 0.4 -10.2
v 0.7 0.5 -10.2
v 0.7 0.6 -10.2
v 0.8 0.5 -10.2
v 0.8 0.6 -10.2
v 0.8 0.7 -10.2
v 0.9 0.6 -10.2
v 0.9 0.7 -10.2
v 0.9 0.8 -10.2
v 1 0.7 -10.2
v 1 0.8 -10.2
v 1 0.9 -10.2
v 1 1 -10.2
v 1 1.1 -10.2
v 1 1.2 -10.2
v 1 1.3 -10.2
v 1.1 0 -10.2
v 1.1 0.8 -10.2
v 1.1 0.9 -10.2
v 1.1 1 -10.2
v 1.1 1.1 -10.2
v 1.1 1.2 -10.2
v 1.1 1.3 -10.2
v 1.1 2 -10.2
v -3.9 0 -9.9
v 1.1 0 -9.9
v -3.9 0 -10.2
v 1.1 0 -10.2
v -3.9 2 -9.9
v 1.1 2 -9.9
v -3.9 2 -10.2
v 1.1 2 -10.2

# faces
f 3/4/1 2/4/1 1/4/1
f 4/4/1 2/4/1 3/4/1
f 5/4/1 3/4/1 1/4/1
f 5/1/1 4/1/1 3/1/1
f 6/1/1 4/1/1 5/1/1
f 7/4/1 5/4/1 1/4/1
f 7/4/1 6/4/1 5/4/1
f 8/4/1 6/4/1 7/4/1
f 9/4/1 7/4/1 1/4/1
f 9/3/1 8/3/1 7/3/1
f 10/3/1 8/3/1 9/3/1
f 11/4/1 9/4/1 1/4/1
f 11/1/1 10/1/1 9/1/1
f 12/1/1 10/1/1 11/1/1
f 13/4/1 11/4/1 1/4/1
f 13/4/1 12/4/1 11/4/1
f 14/4/1 12/4/1 13/4/1
f 15/4/1 13/4/1 1/4/1
f 15/3/1 14/3/1 13/3/1
f 16/3/1 14/3/1 15/3/1
f 17/4/1 15/4/1 1/4/1
f 17/4/1 16/4/1 15/4/1
f 18/4/1 16/4/1 17/4/1
f 19/4/2 20/4/2 21/4/2
f 21/4/2 20/4/2 22/4/2
f 19/4/2 21/4/2 23/4/2
f 21/1/2 22/1/2 23/1/2
f 23/1/2 22/1/2 24/1/2
f 19/4/2 23/4/2 25/4/2
f 23/3/2 24/3/2 25/3/2
f 25/3/2 24/3/2 26/3/2
f 19/4/2 25/4/2 27/4/2
f 25/1/2 26/1/2 27/1/2
f 27/1/2 26/1/2 28/1/2
f 19/4/2 27/4/2 29/4/2
f 27/4/2 28/4/2 29/4/2
f 29/4/2 28/4/2 30/4/2
f 19/4/2 29/4/2 31/4/2
f 29/3/2 30/3/2 31/3/2
f 31/3/2 30/3/2 32/3/2
f 19/4/2 31/4/2 33/4/2
f 31/4/2 32/4/2 33/4/2
f 33/4/2 32/4/2 34/4/2
f 37/4/3 36/4/3 35/4/3
f 38/4/3 36/4/3 37/4/3
f 39/4/4 40/4/4 48/4/4
f 40/1/4 41/1/4 49/1/4
f 48/4/4 40/4/4 49/4/4
f 41/4/4 42/4/4 50/4/4
f 49/1/4 41/1/4 50/1/4
f 42/3/4 43/3/4 51/3/4
f 50/4/4 42/4/4 51/4/4
f 43/1/4 44/1/4 52/1/4
f 51/3/4 43/3/4 52/3/4
f 44/4/4 45/4/4 53/4/4
f 52/1/4 44/1/4 53/1/4
f 45/3/4 46/3/4 54/3/4
f 53/4/4 45/4/4 54/4/4
f 46/4/4 47/4/4 55/4/4
f 54/3/4 46/3/4 55/3/4
f 39/4/4 48/4/4 56/4/4
f 48/1/4 49/1/4 57/1/4
f 56/4/4 48/4/4 57/4/4
f 49/4/4 50/4/4 58/4/4
f 57/1/4 49/1/4 58/1/4
f 50/4/4 51/4/4 58/4/4
f 39/4/4 56/4/4 59/4/4
f 56/1/4 57/1/4 60/1/4
f 59/4/4 56/4/4 60/4/4
f 57/4/4 58/4/4 61/4/4
f 60/1/4 57/1/4 61/1/4
f 39/4/4 59/4/4 62/4/4
f 59/1/4 60/1/4 63/1/4
f 62/4/4 59/4/4 63/4/4
f 39/4/4 62/4/4 64/4/4
f 62/3/4 63/3/4 64/3/4
f 63/1/4 60/1/4 65/1/4
f 64/3/4 63/3/4 65/3/4
f 64/4/4 65/4/4 66/4/4
f 65/1/4 60/1/4 66/1/4
f 60/4/4 61/4/4 67/4/4
f 66/1/4 60/1/4 67/1/4
f 61/4/4 58/4/4 68/4/4
f 67/4/4 61/4/4 68/4/4
f 66/4/4 67/4/4 69/4/4
f 67/1/4 68/1/4 69/1/4
f 68/4/4 58/4/4 70/4/4
f 69/1/4 68/1/4 70/1/4
f 58/4/4 51/4/4 71/4/4
f 70/4/4 58/4/4 71/4/4
f 69/4/4 70/4/4 72/4/4
f 70/1/4 71/1/4 72/1/4
f 71/4/4 51/4/4 73/4/4
f 72/1/4 71/1/4 73/1/4
f 73/4/4 51/4/4 74/4/4
f 72/4/4 73/4/4 75/4/4
f 73/1/4 74/1/4 75/1/4
f 74/4/4 51/4/4 76/4/4
f 75/1/4 74/1/4 76/1/4
f 51/1/4 52/1/4 77/1/4
f 76/4/4 51/4/4 77/4/4
f 52/4/4 53/4/4 78/4/4
f 77/1/4 52/1/4 78/1/4
f 53/1/4 54/1/4 79/1/4
f 78/4/4 53/4/4 79/4/4
f 54/4/4 55/4/4 80/4/4
f 79/1/4 54/1/4 80/1/4
f 55/4/4 47/4/4 81/4/4
f 80/4/4 55/4/4 81/4/4
f 75/4/4 76/4/4 82/4/4
f 72/4/4 75/4/4 82/4/4
f 76/1/4 77/1/4 83/1/4
f 82/4/4 76/4/4 83/4/4
f 77/3/4 78/3/4 84/3/4
f 83/1/4 77/1/4 84/1/4
f 78/1/4 79/1/4 85/1/4
f 84/3/4 78/3/4 85/3/4
f 79/4/4 80/4/4 86/4/4
f 85/1/4 79/1/4 86/1/4
f 80/3/4 81/3/4 87/3/4
f 86/4/4 80/4/4 87/4/4
f 81/4/4 47/4/4 88/4/4
f 87/3/4 81/3/4 88/3/4
f 69/4/4 72/4/4 89/4/4
f 72/4/4 82/4/4 89/4/4
f 82/1/4 83/1/4 90/1/4
f 89/4/4 82/4/4 90/4/4
f 83/4/4 84/4/4 91/4/4
f 90/1/4 83/1/4 91/1/4
f 69/4/4 89/4/4 92/4/4
f 66/4/4 69/4/4 92/4/4
f 89/1/4 90/1/4 93/1/4
f 92/4/4 89/4/4 93/4/4
f 90/4/4 91/4/4 94/4/4
f 93/1/4 90/1/4 94/1/4
f 66/4/4 92/4/4 95/4/4
f 64/4/4 66/4/4 95/4/4
f 92/1/4 93/1/4 96/1/4
f 95/4/4 92/4/4 96/4/4
f 64/4/4 95/4/4 97/4/4
f 95/3/4 96/3/4 97/3/4
f 96/1/4 93/1/4 98/1/4
f 97/3/4 96/3/4 98/3/4
f 97/4/4 98/4/4 99/4/4
f 98/1/4 93/1/4 99/1/4
f 93/4/4 94/4/4 100/4/4
f 99/1/4 93/1/4 100/1/4
f 94/4/4 91/4/4 101/4/4
f 100/4/4 94/4/4 101/4/4
f 99/4/4 100/4/4 102/4/4
f 100/1/4 101/1/4 102/1/4
f 101/4/4 91/4/4 103/4/4
f 102/1/4 101/1/4 103/1/4
f 91/4/4 84/4/4 104/4/4
f 103/4/4 91/4/4 104/4/4
f 102/4/4 103/4/4 105/4/4
f 103/1/4 104/1/4 105/1/4
f 104/4/4 84/4/4 106/4/4
f 105/1/4 104/1/4 106/1/4
f 84/1/4 85/1/4 107/1/4
f 106/4/4 84/4/4 107/4/4
f 85/4/4 86/4/4 108/4/4
f 107/1/4 85/1/4 108/1/4
f 86/1/4 87/1/4 109/1/4
f 108/4/4 86/4/4 109/4/4
f 87/4/4 88/4/4 110/4/4
f 109/1/4 87/1/4 110/1/4
f 88/4/4 47/4/4 111/4/4
f 110/4/4 88/4/4 111/4/4
f 102/4/4 105/4/4 112/4/4
f 105/4/4 106/4/4 112/4/4
f 106/1/4 107/1/4 113/1/4
f 112/4/4 106/4/4 113/4/4
f 107/3/4 108/3/4 114/3/4
f 113/1/4 107/1/4 114/1/4
f 108/1/4 109/1/4 115/1/4
f 114/3/4 108/3/4 115/3/4
f 109/4/4 110/4/4 116/4/4
f 115/1/4 109/1/4 116/1/4
f 110/3/4 111/3/4 117/3/4
f 116/4/4 110/4/4 117/4/4
f 111/4/4 47/4/4 118/4/4
f 117/3/4 111/3/4 118/3/4
f 99/4/4 102/4/4 119/4/4
f 97/4/4 99/4/4 119/4/4
f 102/4/4 112/4/4 119/4/4
f 119/4/4 112/4/4 120/4/4
f 112/1/4 113/1/4 121/1/4
f 120/4/4 112/4/4 121/4/4
f 113/4/4 114/4/4 122/4/4
f 121/1/4 113/1/4 122/1/4
f 119/3/4 120/3/4 123/3/4
f 97/4/4 119/4/4 123/4/4
f 120/1/4 121/1/4 124/1/4
f 123/3/4 120/3/4 124/3/4
f 121/4/4 122/4/4 125/4/4
f 124/1/4 121/1/4 125/1/4
f 122/4/4 114/4/4 126/4/4
f 125/4/4 122/4/4 126/4/4
f 124/4/4 125/4/4 127/4/4
f 123/4/4 124/4/4 127/4/4
f 125/1/4 126/1/4 127/1/4
f 126/4/4 114/4/4 128/4/4
f 127/1/4 126/1/4 128/1/4
f 114/1/4 115/1/4 129/1/4
f 128/4/4 114/4/4 129/4/4
f 115/4/4 116/4/4 130/4/4
f 129/1/4 115/1/4 130/1/4
f 116/1/4 117/1/4 131/1/4
f 130/4/4 116/4/4 131/4/4
f 117/4/4 118/4/4 132/4/4
f 131/1/4 117/1/4 132/1/4
f 118/4/4 47/4/4 133/4/4
f 132/4/4 118/4/4 133/4/4
f 127/4/4 128/4/4 134/4/4
f 123/4/4 127/4/4 134/4/4
f 97/4/4 123/4/4 134/4/4
f 134/4/4 128/4/4 135/4/4
f 128/1/4 129/1/4 136/1/4
f 135/4/4 128/4/4 136/4/4
f 129/3/4 130/3/4 137/3/4
f 136/1/4 129/1/4 137/1/4
f 130/1/4 131/1/4 138/1/4
f 137/3/4 130/3/4 138/3/4
f 131/4/4 132/4/4 139/4/4
f 138/1/4 131/1/4 139/1/4
f 132/3/4 133/3/4 140/3/4
f 139/4/4 132/4/4 140/4/4
f 133/4/4 47/4/4 141/4/4
f 140/3/4 133/3/4 141/3/4
f 141/4/4 47/4/4 142/4/4
f 142/4/4 47/4/4 143/4/4
f 134/3/4 135/3/4 144/3/4
f 97/4/4 134/4/4 144/4/4
f 135/1/4 136/1/4 145/1/4
f 144/3/4 135/3/4 145/3/4
f 139/1/4 140/1/4 145/1/4
f 141/1/4 142/1/4 145/1/4
f 140/1/4 141/1/4 145/1/4
f 137/1/4 138/1/4 145/1/4
f 138/1/4 139/1/4 145/1/4
f 136/1/4 137/1/4 145/1/4
f 145/1/4 142/1/4 146/1/4
f 146/1/4 142/1/4 147/1/4
f 147/1/4 142/1/4 148/1/4
f 148/1/4 142/1/4 149/1/4
f 149/1/4 142/1/4 150/1/4
f 142/3/4 143/3/4 151/3/4
f 150/1/4 142/1/4 151/1/4
f 143/4/4 47/4/4 152/4/4
f 151/3/4 143/3/4 152/3/4
f 145/2/4 146/2/4 153/2/4
f 146/1/4 147/1/4 153/1/4
f 147/2/4 148/2/4 154/2/4
f 153/1/4 147/1/4 154/1/4
f 148/1/4 149/1/4 155/1/4
f 154/2/4 148/2/4 155/2/4
f 149/2/4 150/2/4 156/2/4
f 155/1/4 149/1/4 156/1/4
f 154/2/4 155/2/4 157/2/4
f 144/1/4 145/1/4 157/1/4
f 155/2/4 156/2/4 157/2/4
f 153/2/4 154/2/4 157/2/4
f 145/2/4 153/2/4 157/2/4
f 156/2/4 150/2/4 158/2/4
f 157/2/4 156/2/4 158/2/4
f 97/4/4 144/4/4 159/4/4
f 144/1/4 157/1/4 159/1/4
f 157/1/4 158/1/4 159/1/4
f 159/1/4 158/1/4 160/1/4
f 158/2/4 150/2/4 161/2/4
f 160/1/4 158/1/4 161/1/4
f 150/1/4 151/1/4 162/1/4
f 161/2/4 150/2/4 162/2/4
f 151/1/4 152/1/4 162/1/4
f 162/1/4 152/1/4 163/1/4
f 152/4/4 47/4/4 164/4/4
f 163/1/4 152/1/4 164/1/4
f 159/3/4 160/3/4 165/3/4
f 97/4/4 159/4/4 165/4/4
f 160/1/4 161/1/4 166/1/4
f 165/3/4 160/3/4 166/3/4
f 162/1/4 163/1/4 166/1/4
f 161/1/4 162/1/4 166/1/4
f 166/1/4 163/1/4 167/1/4
f 167/1/4 163/1/4 168/1/4
f 168/1/4 163/1/4 169/1/4
f 169/1/4 163/1/4 170/1/4
f 170/1/4 163/1/4 171/1/4
f 171/1/4 163/1/4 172/1/4
f 163/3/4 164/3/4 173/3/4
f 172/1/4 163/1/4 173/1/4
f 164/4/4 47/4/4 174/4/4
f 173/3/4 164/3/4 174/3/4
f 165/4/4 166/4/4 175/4/4
f 166/4/4 167/4/4 175/4/4
f 167/1/4 168/1/4 176/1/4
f 175/4/4 167/4/4 176/4/4
f 168/3/4 169/3/4 177/3/4
f 176/1/4 168/1/4 177/1/4
f 169/1/4 170/1/4 178/1/4
f 177/3/4 169/3/4 178/3/4
f 170/4/4 171/4/4 179/4/4
f 178/1/4 170/1/4 179/1/4
f 171/3/4 172/3/4 180/3/4
f 179/4/4 171/4/4 180/4/4
f 172/4/4 173/4/4 181/4/4
f 180/3/4 172/3/4 181/3/4
f 173/4/4 174/4/4 181/4/4
f 97/4/4 165/4/4 182/4/4
f 165/4/4 175/4/4 182/4/4
f 182/4/4 175/4/4 183/4/4
f 175/1/4 176/1/4 184/1/4
f 183/4/4 175/4/4 184/4/4
f 176/4/4 177/4/4 185/4/4
f 184/1/4 176/1/4 185/1/4
f 182/3/4 183/3/4 186/3/4
f 97/4/4 182/4/4 186/4/4
f 183/1/4 184/1/4 187/1/4
f 186/3/4 183/3/4 187/3/4
f 184/4/4 185/4/4 188/4/4
f 187/1/4 184/1/4 188/1/4
f 185/4/4 177/4/4 189/4/4
f 188/4/4 185/4/4 189/4/4
f 187/4/4 188/4/4 190/4/4
f 186/4/4 187/4/4 190/4/4
f 188/1/4 189/1/4 190/1/4
f 189/4/4 177/4/4 191/4/4
f 190/1/4 189/1/4 191/1/4
f 177/1/4 178/1/4 192/1/4
f 191/4/4 177/4/4 192/4/4
f 178/4/4 179/4/4 193/4/4
f 192/1/4 178/1/4 193/1/4
f 179/1/4 180/1/4 194/1/4
f 193/4/4 179/4/4 194/4/4
f 180/4/4 181/4/4 195/4/4
f 194/1/4 180/1/4 195/1/4
f 181/4/4 174/4/4 196/4/4
f 195/4/4 181/4/4 196/4/4
f 190/4/4 191/4/4 197/4/4
f 186/4/4 190/4/4 197/4/4
f 191/1/4 192/1/4 198/1/4
f 197/4/4 191/4/4 198/4/4
f 192/3/4 193/3/4 199/3/4
f 198/1/4 192/1/4 199/1/4
f 193/1/4 194/1/4 200/1/4
f 199/3/4 193/3/4 200/3/4
f 194/4/4 195/4/4 201/4/4
f 200/1/4 194/1/4 201/1/4
f 195/3/4 196/3/4 202/3/4
f 201/4/4 195/4/4 202/4/4
f 196/4/4 174/4/4 203/4/4
f 202/3/4 196/3/4 203/3/4
f 186/4/4 197/4/4 204/4/4
f 197/1/4 198/1/4 205/1/4
f 204/4/4 197/4/4 205/4/4
f 198/4/4 199/4/4 206/4/4
f 205/1/4 198/1/4 206/1/4
f 186/4/4 204/4/4 207/4/4
f 97/4/4 186/4/4 207/4/4
f 204/1/4 205/1/4 208/1/4
f 207/4/4 204/4/4 208/4/4
f 205/4/4 206/4/4 209/4/4
f 208/1/4 205/1/4 209/1/4
f 64/4/4 97/4/4 210/4/4
f 97/4/4 207/4/4 210/4/4
f 207/1/4 208/1/4 211/1/4
f 210/4/4 207/4/4 211/4/4
f 64/4/4 210/4/4 212/4/4
f 210/3/4 211/3/4 212/3/4
f 211/1/4 208/1/4 213/1/4
f 212/3/4 211/3/4 213/3/4
f 212/4/4 213/4/4 214/4/4
f 213/1/4 208/1/4 214/1/4
f 208/4/4 209/4/4 215/4/4
f 214/1/4 208/1/4 215/1/4
f 209/4/4 206/4/4 216/4/4
f 215/4/4 209/4/4 216/4/4
f 214/4/4 215/4/4 217/4/4
f 215/1/4 216/1/4 217/1/4
f 216/4/4 206/4/4 218/4/4
f 217/1/4 216/1/4 218/1/4
f 206/4/4 199/4/4 219/4/4
f 218/4/4 206/4/4 219/4/4
f 217/4/4 218/4/4 220/4/4
f 218/1/4 219/1/4 220/1/4
f 219/4/4 199/4/4 221/4/4
f 220/1/4 219/1/4 221/1/4
f 199/1/4 200/1/4 222/1/4
f 221/4/4 199/4/4 222/4/4
f 200/4/4 201/4/4 223/4/4
f 222/1/4 200/1/4 223/1/4
f 201/1/4 202/1/4 224/1/4
f 223/4/4 201/4/4 224/4/4
f 202/4/4 203/4/4 225/4/4
f 224/1/4 202/1/4 225/1/4
f 203/4/4 174/4/4 226/4/4
f 225/4/4 203/4/4 226/4/4
f 217/4/4 220/4/4 227/4/4
f 220/4/4 221/4/4 227/4/4
f 221/1/4 222/1/4 228/1/4
f 227/4/4 221/4/4 228/4/4
f 222/3/4 223/3/4 229/3/4
f 228/1/4 222/1/4 229/1/4
f 223/1/4 224/1/4 230/1/4
f 229/3/4 223/3/4 230/3/4
f 224/4/4 225/4/4 231/4/4
f 230/1/4 224/1/4 231/1/4
f 225/3/4 226/3/4 232/3/4
f 231/4/4 225/4/4 232/4/4
f 226/4/4 174/4/4 233/4/4
f 232/3/4 226/3/4 233/3/4
f 214/4/4 217/4/4 234/4/4
f 217/4/4 227/4/4 234/4/4
f 227/1/4 228/1/4 235/1/4
f 234/4/4 227/4/4 235/4/4
f 228/4/4 229/4/4 236/4/4
f 235/1/4 228/1/4 236/1/4
f 214/4/4 234/4/4 237/4/4
f 212/4/4 214/4/4 237/4/4
f 234/1/4 235/1/4 238/1/4
f 237/4/4 234/4/4 238/4/4
f 235/4/4 236/4/4 239/4/4
f 238/1/4 235/1/4 239/1/4
f 64/4/4 212/4/4 240/4/4
f 212/4/4 237/4/4 240/4/4
f 237/1/4 238/1/4 241/1/4
f 240/4/4 237/4/4 241/4/4
f 238/4/4 239/4/4 242/4/4
f 241/1/4 238/1/4 242/1/4
f 39/4/4 64/4/4 243/4/4
f 64/4/4 240/4/4 243/4/4
f 240/1/4 241/1/4 244/1/4
f 243/4/4 240/4/4 244/4/4
f 39/4/4 243/4/4 245/4/4
f 243/3/4 244/3/4 245/3/4
f 244/1/4 241/1/4 246/1/4
f 245/3/4 244/3/4 246/3/4
f 245/4/4 246/4/4 247/4/4
f 246/1/4 241/1/4 247/1/4
f 241/4/4 242/4/4 248/4/4
f 247/1/4 241/1/4 248/1/4
f 242/4/4 239/4/4 249/4/4
f 248/4/4 242/4/4 249/4/4
f 247/4/4 248/4/4 250/4/4
f 248/1/4 249/1/4 250/1/4
f 249/4/4 239/4/4 251/4/4
f 250/1/4 249/1/4 251/1/4
f 239/4/4 236/4/4 252/4/4
f 251/4/4 239/4/4 252/4/4
f 250/4/4 251/4/4 253/4/4
f 251/1/4 252/1/4 253/1/4
f 252/4/4 236/4/4 254/4/4
f 253/1/4 252/1/4 254/1/4
f 236/4/4 229/4/4 255/4/4
f 254/4/4 236/4/4 255/4/4
f 253/4/4 254/4/4 256/4/4
f 254/1/4 255/1/4 256/1/4
f 255/4/4 229/4/4 257/4/4
f 256/1/4 255/1/4 257/1/4
f 229/1/4 230/1/4 258/1/4
f 257/4/4 229/4/4 258/4/4
f 230/4/4 231/4/4 259/4/4
f 258/1/4 230/1/4 259/1/4
f 231/1/4 232/1/4 260/1/4
f 259/4/4 231/4/4 260/4/4
f 232/4/4 233/4/4 261/4/4
f 260/1/4 232/1/4 261/1/4
f 233/4/4 174/4/4 262/4/4
f 261/4/4 233/4/4 262/4/4
f 256/4/4 257/4/4 263/4/4
f 247/4/4 250/4/4 263/4/4
f 253/4/4 256/4/4 263/4/4
f 39/4/4 245/4/4 263/4/4
f 250/4/4 253/4/4 263/4/4
f 245/4/4 247/4/4 263/4/4
f 257/1/4 258/1/4 264/1/4
f 263/4/4 257/4/4 264/4/4
f 258/3/4 259/3/4 265/3/4
f 264/1/4 258/1/4 265/1/4
f 259/1/4 260/1/4 266/1/4
f 265/3/4 259/3/4 266/3/4
f 260/4/4 261/4/4 267/4/4
f 266/1/4 260/1/4 267/1/4
f 261/3/4 262/3/4 268/3/4
f 267/4/4 261/4/4 268/4/4
f 262/4/4 174/4/4 269/4/4
f 268/3/4 262/3/4 269/3/4
f 174/4/4 47/4/4 270/4/4
f 269/4/4 174/4/4 270/4/4
f 273/4/5 272/4/5 271/4/5
f 274/4/5 272/4/5 273/4/5
f 275/4/6 276/4/6 277/4/6
f 277/4/6 276/4/6 278/4/6
