# MagicaVoxel @ Ephtracy

# group
o 

# material
mtllib 3x3x311.mtl
usemtl palette

# normals
vn -1 0 0
vn 1 0 0
vn 0 0 1
vn 0 0 -1
vn 0 -1 0
vn 0 1 0

# texcoords
vt 0.662109 0.5
vt 0.681641 0.5
vt 0.689453 0.5
vt 0.837891 0.5

# verts
v -0.3 0 0
v -0.3 0 -0.1
v -0.3 0.1 0
v -0.3 0.1 -0.1
v -0.3 0.5 0.1
v -0.3 0.5 0
v -0.3 0.6 0.1
v -0.3 0.6 0
v -0.2 0 0.2
v -0.2 0 0.1
v -0.2 0.1 0.2
v -0.2 0.1 0.1
v -0.2 0.1 -0.2
v -0.2 0.1 -0.3
v -0.2 0.2 0.3
v -0.2 0.2 0.2
v -0.2 0.2 -0.2
v -0.2 0.2 -0.3
v -0.2 0.3 0.3
v -0.2 0.3 0.2
v -0.2 0.4 0.2
v -0.2 0.4 0.1
v -0.2 0.4 -0.2
v -0.2 0.4 -0.3
v -0.2 0.5 0.2
v -0.2 0.5 0.1
v -0.2 0.5 -0.2
v -0.2 0.5 -0.3
v -0.1 0 0.1
v -0.1 0 0
v -0.1 0 -0.1
v -0.1 0 -0.2
v -0.1 0.1 0.1
v -0.1 0.1 0
v -0.1 0.1 -0.1
v -0.1 0.1 -0.2
v -0.1 0.2 0.1
v -0.1 0.2 0
v -0.1 0.2 -0.1
v -0.1 0.2 -0.2
v -0.1 0.3 0.1
v -0.1 0.3 0
v -0.1 0.3 -0.1
v -0.1 0.4 0.1
v -0.1 0.4 0
v -0.1 0.4 -0.1
v -0.1 0.5 0
v -0.1 0.5 -0.1
v 0 0.2 -0.1
v 0 0.2 -0.2
v 0 0.3 0
v 0 0.3 -0.1
v 0 0.3 -0.2
v 0 0.4 0
v 0 0.4 -0.1
v 0.1 0 0.3
v 0.1 0 0.2
v 0.1 0.1 0.3
v 0.1 0.1 0.2
v 0.1 0.1 0
v 0.1 0.1 -0.1
v 0.1 0.2 0
v 0.1 0.2 -0.1
v 0.1 0.3 -0.1
v 0.1 0.3 -0.2
v 0.1 0.4 -0.1
v 0.1 0.4 -0.2
v 0.1 0.5 -0.2
v 0.1 0.5 -0.3
v 0.1 0.6 -0.2
v 0.1 0.6 -0.3
v 0.2 0 -0.2
v 0.2 0 -0.3
v 0.2 0.1 -0.2
v 0.2 0.1 -0.3
v 0.2 0.3 0.2
v 0.2 0.3 0.1
v 0.2 0.4 0.2
v 0.2 0.4 0.1
v 0.2 0.4 0
v 0.2 0.4 -0.1
v 0.2 0.4 -0.2
v 0.2 0.4 -0.3
v 0.2 0.5 0
v 0.2 0.5 -0.1
v 0.2 0.5 -0.2
v 0.2 0.5 -0.3
v -0.2 0 0
v -0.2 0 -0.1
v -0.2 0.1 0
v -0.2 0.1 -0.1
v -0.2 0.5 0.1
v -0.2 0.5 0
v -0.2 0.6 0.1
v -0.2 0.6 0
v -0.1 0 0.2
v -0.1 0 0.1
v -0.1 0.1 0.2
v -0.1 0.1 0.1
v -0.1 0.1 -0.2
v -0.1 0.1 -0.3
v -0.1 0.2 0.3
v -0.1 0.2 0.2
v -0.1 0.2 -0.2
v -0.1 0.2 -0.3
v -0.1 0.3 0.3
v -0.1 0.3 0.2
v -0.1 0.4 0.2
v -0.1 0.4 0.1
v -0.1 0.4 -0.2
v -0.1 0.4 -0.3
v -0.1 0.5 0.2
v -0.1 0.5 0.1
v -0.1 0.5 -0.2
v -0.1 0.5 -0.3
v 0 0.1 0
v 0 0.1 -0.1
v 0 0.2 0
v 0 0.2 -0.1
v 0 0.4 0
v 0 0.4 -0.1
v 0 0.5 0
v 0 0.5 -0.1
v 0.1 0.3 0
v 0.1 0.3 -0.1
v 0.1 0.4 0
v 0.1 0.4 -0.1
v 0.2 0 0.3
v 0.2 0 0.2
v 0.2 0 0.1
v 0.2 0 0
v 0.2 0 -0.1
v 0.2 0 -0.2
v 0.2 0.1 0.3
v 0.2 0.1 0.2
v 0.2 0.1 0.1
v 0.2 0.1 0
v 0.2 0.1 -0.1
v 0.2 0.1 -0.2
v 0.2 0.2 0.1
v 0.2 0.2 0
v 0.2 0.2 -0.1
v 0.2 0.3 0.1
v 0.2 0.3 0
v 0.2 0.3 -0.1
v 0.2 0.3 -0.2
v 0.2 0.4 0.1
v 0.2 0.4 0
v 0.2 0.4 -0.1
v 0.2 0.4 -0.2
v 0.2 0.5 -0.2
v 0.2 0.5 -0.3
v 0.2 0.6 -0.2
v 0.2 0.6 -0.3
v 0.3 0 -0.2
v 0.3 0 -0.3
v 0.3 0.1 0.1
v 0.3 0.1 0
v 0.3 0.1 -0.2
v 0.3 0.1 -0.3
v 0.3 0.2 0.1
v 0.3 0.2 0
v 0.3 0.3 0.2
v 0.3 0.3 0.1
v 0.3 0.4 0.2
v 0.3 0.4 0.1
v 0.3 0.4 0
v 0.3 0.4 -0.1
v 0.3 0.4 -0.2
v 0.3 0.4 -0.3
v 0.3 0.5 0
v 0.3 0.5 -0.1
v 0.3 0.5 -0.2
v 0.3 0.5 -0.3
v -0.2 0.2 0.3
v -0.2 0.3 0.3
v -0.1 0.2 0.3
v -0.1 0.3 0.3
v 0.1 0 0.3
v 0.1 0.1 0.3
v 0.2 0 0.3
v 0.2 0.1 0.3
v -0.2 0 0.2
v -0.2 0.1 0.2
v -0.2 0.4 0.2
v -0.2 0.5 0.2
v -0.1 0 0.2
v -0.1 0.1 0.2
v -0.1 0.4 0.2
v -0.1 0.5 0.2
v 0.2 0.3 0.2
v 0.2 0.4 0.2
v 0.3 0.3 0.2
v 0.3 0.4 0.2
v -0.3 0.5 0.1
v -0.3 0.6 0.1
v -0.2 0.5 0.1
v -0.2 0.6 0.1
v -0.1 0 0.1
v -0.1 0.1 0.1
v -0.1 0.2 0.1
v -0.1 0.3 0.1
v -0.1 0.4 0.1
v 0 0.1 0.1
v 0 0.2 0.1
v 0 0.3 0.1
v 0 0.4 0.1
v 0.1 0 0.1
v 0.1 0.1 0.1
v 0.1 0.2 0.1
v 0.1 0.3 0.1
v 0.1 0.4 0.1
v 0.2 0 0.1
v 0.2 0.1 0.1
v 0.2 0.2 0.1
v 0.2 0.3 0.1
v 0.2 0.4 0.1
v 0.3 0.1 0.1
v 0.3 0.2 0.1
v -0.3 0 0
v -0.3 0.1 0
v -0.2 0 0
v -0.2 0.1 0
v -0.1 0.4 0
v -0.1 0.5 0
v 0 0.4 0
v 0 0.5 0
v 0.2 0.4 0
v 0.2 0.5 0
v 0.3 0.4 0
v 0.3 0.5 0
v 0 0.1 -0.1
v 0 0.2 -0.1
v 0.1 0.1 -0.1
v 0.1 0.2 -0.1
v 0.1 0.3 -0.1
v 0.1 0.4 -0.1
v 0.2 0.3 -0.1
v 0.2 0.4 -0.1
v -0.2 0.1 -0.2
v -0.2 0.2 -0.2
v -0.2 0.4 -0.2
v -0.2 0.5 -0.2
v -0.1 0.1 -0.2
v -0.1 0.2 -0.2
v -0.1 0.4 -0.2
v -0.1 0.5 -0.2
v 0.1 0.5 -0.2
v 0.1 0.6 -0.2
v 0.2 0 -0.2
v 0.2 0.1 -0.2
v 0.2 0.4 -0.2
v 0.2 0.5 -0.2
v 0.2 0.6 -0.2
v 0.3 0 -0.2
v 0.3 0.1 -0.2
v 0.3 0.4 -0.2
v 0.3 0.5 -0.2
v -0.2 0.2 0.2
v -0.2 0.3 0.2
v -0.1 0.2 0.2
v -0.1 0.3 0.2
v 0.1 0 0.2
v 0.1 0.1 0.2
v 0.2 0 0.2
v 0.2 0.1 0.2
v -0.2 0 0.1
v -0.2 0.1 0.1
v -0.2 0.4 0.1
v -0.2 0.5 0.1
v -0.1 0 0.1
v -0.1 0.1 0.1
v -0.1 0.4 0.1
v -0.1 0.5 0.1
v 0.2 0.3 0.1
v 0.2 0.4 0.1
v 0.3 0.3 0.1
v 0.3 0.4 0.1
v -0.3 0.5 0
v -0.3 0.6 0
v -0.2 0.5 0
v -0.2 0.6 0
v -0.1 0.3 0
v -0.1 0.4 0
v 0 0.1 0
v 0 0.2 0
v 0 0.3 0
v 0 0.4 0
v 0.1 0.1 0
v 0.1 0.2 0
v 0.1 0.3 0
v 0.1 0.4 0
v 0.2 0.1 0
v 0.2 0.2 0
v 0.2 0.3 0
v 0.2 0.4 0
v 0.3 0.1 0
v 0.3 0.2 0
v -0.3 0 -0.1
v -0.3 0.1 -0.1
v -0.2 0 -0.1
v -0.2 0.1 -0.1
v -0.1 0.2 -0.1
v -0.1 0.3 -0.1
v -0.1 0.4 -0.1
v -0.1 0.5 -0.1
v 0 0.2 -0.1
v 0 0.3 -0.1
v 0 0.4 -0.1
v 0 0.5 -0.1
v 0.1 0.3 -0.1
v 0.1 0.4 -0.1
v 0.2 0.4 -0.1
v 0.2 0.5 -0.1
v 0.3 0.4 -0.1
v 0.3 0.5 -0.1
v -0.1 0 -0.2
v -0.1 0.1 -0.2
v -0.1 0.2 -0.2
v 0 0 -0.2
v 0 0.1 -0.2
v 0 0.2 -0.2
v 0 0.3 -0.2
v 0.1 0 -0.2
v 0.1 0.1 -0.2
v 0.1 0.2 -0.2
v 0.1 0.3 -0.2
v 0.1 0.4 -0.2
v 0.2 0 -0.2
v 0.2 0.1 -0.2
v 0.2 0.3 -0.2
v 0.2 0.4 -0.2
v -0.2 0.1 -0.3
v -0.2 0.2 -0.3
v -0.2 0.4 -0.3
v -0.2 0.5 -0.3
v -0.1 0.1 -0.3
v -0.1 0.2 -0.3
v -0.1 0.4 -0.3
v -0.1 0.5 -0.3
v 0.1 0.5 -0.3
v 0.1 0.6 -0.3
v 0.2 0 -0.3
v 0.2 0.1 -0.3
v 0.2 0.4 -0.3
v 0.2 0.5 -0.3
v 0.2 0.6 -0.3
v 0.3 0 -0.3
v 0.3 0.1 -0.3
v 0.3 0.4 -0.3
v 0.3 0.5 -0.3
v 0.1 0 0.3
v 0.2 0 0.3
v -0.2 0 0.2
v -0.1 0 0.2
v 0.1 0 0.2
v 0.2 0 0.2
v -0.2 0 0.1
v -0.1 0 0.1
v 0.1 0 0.1
v 0.2 0 0.1
v -0.3 0 0
v -0.2 0 0
v -0.1 0 0
v 0.1 0 0
v 0.2 0 0
v -0.3 0 -0.1
v -0.2 0 -0.1
v -0.1 0 -0.1
v 0 0 -0.1
v 0.1 0 -0.1
v 0.2 0 -0.1
v -0.1 0 -0.2
v 0 0 -0.2
v 0.1 0 -0.2
v 0.2 0 -0.2
v 0.3 0 -0.2
v 0.2 0 -0.3
v 0.3 0 -0.3
v 0.2 0.1 0.1
v 0.3 0.1 0.1
v 0.2 0.1 0
v 0.3 0.1 0
v -0.2 0.1 -0.2
v -0.1 0.1 -0.2
v -0.2 0.1 -0.3
v -0.1 0.1 -0.3
v -0.2 0.2 0.3
v -0.1 0.2 0.3
v -0.2 0.2 0.2
v -0.1 0.2 0.2
v 0 0.2 0
v 0.1 0.2 0
v 0 0.2 -0.1
v 0.1 0.2 -0.1
v 0.2 0.3 0.2
v 0.3 0.3 0.2
v 0.2 0.3 0.1
v 0.3 0.3 0.1
v -0.2 0.4 0.2
v -0.1 0.4 0.2
v -0.2 0.4 0.1
v -0.1 0.4 0.1
v -0.1 0.4 0
v 0 0.4 0
v 0.2 0.4 0
v 0.3 0.4 0
v -0.1 0.4 -0.1
v 0 0.4 -0.1
v 0.2 0.4 -0.1
v 0.3 0.4 -0.1
v -0.2 0.4 -0.2
v -0.1 0.4 -0.2
v 0.2 0.4 -0.2
v 0.3 0.4 -0.2
v -0.2 0.4 -0.3
v -0.1 0.4 -0.3
v 0.2 0.4 -0.3
v 0.3 0.4 -0.3
v -0.3 0.5 0.1
v -0.2 0.5 0.1
v -0.3 0.5 0
v -0.2 0.5 0
v 0.1 0.5 -0.2
v 0.2 0.5 -0.2
v 0.1 0.5 -0.3
v 0.2 0.5 -0.3
v 0.1 0.1 0.3
v 0.2 0.1 0.3
v -0.2 0.1 0.2
v -0.1 0.1 0.2
v 0.1 0.1 0.2
v 0.2 0.1 0.2
v -0.2 0.1 0.1
v -0.1 0.1 0.1
v -0.3 0.1 0
v -0.2 0.1 0
v 0 0.1 0
v 0.1 0.1 0
v -0.3 0.1 -0.1
v -0.2 0.1 -0.1
v 0 0.1 -0.1
v 0.1 0.1 -0.1
v 0.2 0.1 -0.2
v 0.3 0.1 -0.2
v 0.2 0.1 -0.3
v 0.3 0.1 -0.3
v 0.2 0.2 0.1
v 0.3 0.2 0.1
v 0.2 0.2 0
v 0.3 0.2 0
v -0.1 0.2 -0.1
v 0 0.2 -0.1
v -0.2 0.2 -0.2
v -0.1 0.2 -0.2
v 0 0.2 -0.2
v -0.2 0.2 -0.3
v -0.1 0.2 -0.3
v -0.2 0.3 0.3
v -0.1 0.3 0.3
v -0.2 0.3 0.2
v -0.1 0.3 0.2
v -0.1 0.3 0
v 0 0.3 0
v 0.1 0.3 0
v 0.2 0.3 0
v -0.1 0.3 -0.1
v 0 0.3 -0.1
v 0.1 0.3 -0.1
v 0.2 0.3 -0.1
v 0 0.3 -0.2
v 0.1 0.3 -0.2
v 0.2 0.4 0.2
v 0.3 0.4 0.2
v -0.1 0.4 0.1
v 0 0.4 0.1
v 0.1 0.4 0.1
v 0.2 0.4 0.1
v 0.3 0.4 0.1
v -0.1 0.4 0
v 0 0.4 0
v 0.1 0.4 0
v 0.2 0.4 0
v 0 0.4 -0.1
v 0.1 0.4 -0.1
v 0.2 0.4 -0.1
v 0.1 0.4 -0.2
v 0.2 0.4 -0.2
v -0.2 0.5 0.2
v -0.1 0.5 0.2
v -0.2 0.5 0.1
v -0.1 0.5 0.1
v -0.1 0.5 0
v 0 0.5 0
v 0.2 0.5 0
v 0.3 0.5 0
v -0.1 0.5 -0.1
v 0 0.5 -0.1
v 0.2 0.5 -0.1
v 0.3 0.5 -0.1
v -0.2 0.5 -0.2
v -0.1 0.5 -0.2
v 0.2 0.5 -0.2
v 0.3 0.5 -0.2
v -0.2 0.5 -0.3
v -0.1 0.5 -0.3
v 0.2 0.5 -0.3
v 0.3 0.5 -0.3
v -0.3 0.6 0.1
v -0.2 0.6 0.1
v -0.3 0.6 0
v -0.2 0.6 0
v 0.1 0.6 -0.2
v 0.2 0.6 -0.2
v 0.1 0.6 -0.3
v 0.2 0.6 -0.3

# faces
f 3/2/1 2/2/1 1/2/1
f 4/2/1 2/2/1 3/2/1
f 7/2/1 6/2/1 5/2/1
f 8/2/1 6/2/1 7/2/1
f 11/4/1 10/4/1 9/4/1
f 12/4/1 10/4/1 11/4/1
f 17/4/1 14/4/1 13/4/1
f 18/4/1 14/4/1 17/4/1
f 19/2/1 16/2/1 15/2/1
f 20/2/1 16/2/1 19/2/1
f 25/4/1 22/4/1 21/4/1
f 26/4/1 22/4/1 25/4/1
f 27/4/1 24/4/1 23/4/1
f 28/4/1 24/4/1 27/4/1
f 33/3/1 30/3/1 29/3/1
f 34/4/1 31/4/1 30/4/1
f 34/3/1 30/3/1 33/3/1
f 35/1/1 32/1/1 31/1/1
f 35/4/1 31/4/1 34/4/1
f 36/1/1 32/1/1 35/1/1
f 37/4/1 34/4/1 33/4/1
f 38/1/1 35/1/1 34/1/1
f 38/4/1 34/4/1 37/4/1
f 39/3/1 36/3/1 35/3/1
f 39/1/1 35/1/1 38/1/1
f 40/3/1 36/3/1 39/3/1
f 41/3/1 38/3/1 37/3/1
f 42/4/1 39/4/1 38/4/1
f 42/3/1 38/3/1 41/3/1
f 43/4/1 39/4/1 42/4/1
f 44/2/1 42/2/1 41/2/1
f 45/2/1 42/2/1 44/2/1
f 47/4/1 46/4/1 45/4/1
f 48/4/1 46/4/1 47/4/1
f 52/3/1 50/3/1 49/3/1
f 53/3/1 50/3/1 52/3/1
f 54/2/1 52/2/1 51/2/1
f 55/2/1 52/2/1 54/2/1
f 58/2/1 57/2/1 56/2/1
f 59/2/1 57/2/1 58/2/1
f 62/1/1 61/1/1 60/1/1
f 63/1/1 61/1/1 62/1/1
f 66/3/1 65/3/1 64/3/1
f 67/3/1 65/3/1 66/3/1
f 70/2/1 69/2/1 68/2/1
f 71/2/1 69/2/1 70/2/1
f 74/2/1 73/2/1 72/2/1
f 75/2/1 73/2/1 74/2/1
f 78/4/1 77/4/1 76/4/1
f 79/4/1 77/4/1 78/4/1
f 84/4/1 81/4/1 80/4/1
f 85/4/1 81/4/1 84/4/1
f 86/4/1 83/4/1 82/4/1
f 87/4/1 83/4/1 86/4/1
f 88/2/2 89/2/2 90/2/2
f 90/2/2 89/2/2 91/2/2
f 92/2/2 93/2/2 94/2/2
f 94/2/2 93/2/2 95/2/2
f 96/4/2 97/4/2 98/4/2
f 98/4/2 97/4/2 99/4/2
f 100/4/2 101/4/2 104/4/2
f 104/4/2 101/4/2 105/4/2
f 102/2/2 103/2/2 106/2/2
f 106/2/2 103/2/2 107/2/2
f 108/4/2 109/4/2 112/4/2
f 112/4/2 109/4/2 113/4/2
f 110/4/2 111/4/2 114/4/2
f 114/4/2 111/4/2 115/4/2
f 116/1/2 117/1/2 118/1/2
f 118/1/2 117/1/2 119/1/2
f 120/4/2 121/4/2 122/4/2
f 122/4/2 121/4/2 123/4/2
f 124/2/2 125/2/2 126/2/2
f 126/2/2 125/2/2 127/2/2
f 128/2/2 129/2/2 134/2/2
f 134/2/2 129/2/2 135/2/2
f 130/1/2 131/1/2 136/1/2
f 131/3/2 132/3/2 137/3/2
f 136/1/2 131/1/2 137/1/2
f 132/1/2 133/1/2 138/1/2
f 137/3/2 132/3/2 138/3/2
f 138/1/2 133/1/2 139/1/2
f 137/1/2 138/1/2 141/1/2
f 138/4/2 139/4/2 142/4/2
f 141/1/2 138/1/2 142/1/2
f 140/1/2 141/1/2 143/1/2
f 141/3/2 142/3/2 144/3/2
f 143/1/2 141/1/2 144/1/2
f 142/4/2 139/4/2 145/4/2
f 144/3/2 142/3/2 145/3/2
f 145/4/2 139/4/2 146/4/2
f 143/2/2 144/2/2 147/2/2
f 147/2/2 144/2/2 148/2/2
f 145/3/2 146/3/2 149/3/2
f 149/3/2 146/3/2 150/3/2
f 151/2/2 152/2/2 153/2/2
f 153/2/2 152/2/2 154/2/2
f 155/2/2 156/2/2 159/2/2
f 159/2/2 156/2/2 160/2/2
f 157/4/2 158/4/2 161/4/2
f 161/4/2 158/4/2 162/4/2
f 163/4/2 164/4/2 165/4/2
f 165/4/2 164/4/2 166/4/2
f 167/4/2 168/4/2 171/4/2
f 171/4/2 168/4/2 172/4/2
f 169/4/2 170/4/2 173/4/2
f 173/4/2 170/4/2 174/4/2
f 177/2/3 176/2/3 175/2/3
f 178/2/3 176/2/3 177/2/3
f 181/2/3 180/2/3 179/2/3
f 182/2/3 180/2/3 181/2/3
f 187/4/3 184/4/3 183/4/3
f 188/4/3 184/4/3 187/4/3
f 189/4/3 186/4/3 185/4/3
f 190/4/3 186/4/3 189/4/3
f 193/4/3 192/4/3 191/4/3
f 194/4/3 192/4/3 193/4/3
f 197/2/3 196/2/3 195/2/3
f 198/2/3 196/2/3 197/2/3
f 204/3/3 200/3/3 199/3/3
f 204/4/3 201/4/3 200/4/3
f 205/3/3 202/3/3 201/3/3
f 205/4/3 201/4/3 204/4/3
f 206/2/3 203/2/3 202/2/3
f 206/3/3 202/3/3 205/3/3
f 207/2/3 203/2/3 206/2/3
f 208/3/3 204/3/3 199/3/3
f 209/1/3 205/1/3 204/1/3
f 209/3/3 204/3/3 208/3/3
f 210/4/3 206/4/3 205/4/3
f 210/1/3 205/1/3 209/1/3
f 211/3/3 207/3/3 206/3/3
f 211/4/3 206/4/3 210/4/3
f 212/3/3 207/3/3 211/3/3
f 213/1/3 209/1/3 208/1/3
f 214/4/3 210/4/3 209/4/3
f 214/1/3 209/1/3 213/1/3
f 215/1/3 211/1/3 210/1/3
f 215/4/3 210/4/3 214/4/3
f 216/2/3 212/2/3 211/2/3
f 216/1/3 211/1/3 215/1/3
f 217/2/3 212/2/3 216/2/3
f 218/4/3 215/4/3 214/4/3
f 219/4/3 215/4/3 218/4/3
f 222/2/3 221/2/3 220/2/3
f 223/2/3 221/2/3 222/2/3
f 226/4/3 225/4/3 224/4/3
f 227/4/3 225/4/3 226/4/3
f 230/4/3 229/4/3 228/4/3
f 231/4/3 229/4/3 230/4/3
f 234/1/3 233/1/3 232/1/3
f 235/1/3 233/1/3 234/1/3
f 238/3/3 237/3/3 236/3/3
f 239/3/3 237/3/3 238/3/3
f 244/4/3 241/4/3 240/4/3
f 245/4/3 241/4/3 244/4/3
f 246/4/3 243/4/3 242/4/3
f 247/4/3 243/4/3 246/4/3
f 253/2/3 249/2/3 248/2/3
f 254/2/3 249/2/3 253/2/3
f 255/2/3 251/2/3 250/2/3
f 256/2/3 251/2/3 255/2/3
f 257/4/3 253/4/3 252/4/3
f 258/4/3 253/4/3 257/4/3
f 259/2/4 260/2/4 261/2/4
f 261/2/4 260/2/4 262/2/4
f 263/2/4 264/2/4 265/2/4
f 265/2/4 264/2/4 266/2/4
f 267/4/4 268/4/4 271/4/4
f 271/4/4 268/4/4 272/4/4
f 269/4/4 270/4/4 273/4/4
f 273/4/4 270/4/4 274/4/4
f 275/4/4 276/4/4 277/4/4
f 277/4/4 276/4/4 278/4/4
f 279/2/4 280/2/4 281/2/4
f 281/2/4 280/2/4 282/2/4
f 283/2/4 284/2/4 287/2/4
f 287/2/4 284/2/4 288/2/4
f 285/1/4 286/1/4 289/1/4
f 289/1/4 286/1/4 290/1/4
f 291/2/4 292/2/4 295/2/4
f 295/2/4 292/2/4 296/2/4
f 293/4/4 294/4/4 297/4/4
f 297/4/4 294/4/4 298/4/4
f 299/2/4 300/2/4 301/2/4
f 301/2/4 300/2/4 302/2/4
f 303/4/4 304/4/4 307/4/4
f 307/4/4 304/4/4 308/4/4
f 305/4/4 306/4/4 309/4/4
f 309/4/4 306/4/4 310/4/4
f 308/2/4 309/2/4 311/2/4
f 311/2/4 309/2/4 312/2/4
f 313/4/4 314/4/4 315/4/4
f 315/4/4 314/4/4 316/4/4
f 317/1/4 318/1/4 320/1/4
f 318/3/4 319/3/4 321/3/4
f 320/1/4 318/1/4 321/1/4
f 321/3/4 319/3/4 322/3/4
f 320/3/4 321/3/4 324/3/4
f 321/1/4 322/1/4 325/1/4
f 324/3/4 321/3/4 325/3/4
f 322/3/4 323/3/4 326/3/4
f 325/1/4 322/1/4 326/1/4
f 326/3/4 323/3/4 327/3/4
f 324/1/4 325/1/4 329/1/4
f 325/4/4 326/4/4 330/4/4
f 329/1/4 325/1/4 330/1/4
f 326/4/4 327/4/4 330/4/4
f 327/3/4 328/3/4 331/3/4
f 330/4/4 327/4/4 331/4/4
f 331/3/4 328/3/4 332/3/4
f 333/4/4 334/4/4 337/4/4
f 337/4/4 334/4/4 338/4/4
f 335/4/4 336/4/4 339/4/4
f 339/4/4 336/4/4 340/4/4
f 341/2/4 342/2/4 346/2/4
f 346/2/4 342/2/4 347/2/4
f 343/2/4 344/2/4 348/2/4
f 348/2/4 344/2/4 349/2/4
f 345/4/4 346/4/4 350/4/4
f 350/4/4 346/4/4 351/4/4
f 356/2/5 353/2/5 352/2/5
f 357/2/5 353/2/5 356/2/5
f 358/4/5 355/4/5 354/4/5
f 359/4/5 355/4/5 358/4/5
f 364/3/5 360/3/5 359/3/5
f 365/1/5 361/1/5 360/1/5
f 365/3/5 360/3/5 364/3/5
f 366/1/5 361/1/5 365/1/5
f 367/2/5 363/2/5 362/2/5
f 368/2/5 363/2/5 367/2/5
f 369/4/5 365/4/5 364/4/5
f 370/4/5 365/4/5 369/4/5
f 371/3/5 366/3/5 365/3/5
f 371/4/5 365/4/5 370/4/5
f 372/3/5 366/3/5 371/3/5
f 373/1/5 370/1/5 369/1/5
f 374/3/5 371/3/5 370/3/5
f 374/1/5 370/1/5 373/1/5
f 375/1/5 372/1/5 371/1/5
f 375/3/5 371/3/5 374/3/5
f 376/1/5 372/1/5 375/1/5
f 378/2/5 377/2/5 376/2/5
f 379/2/5 377/2/5 378/2/5
f 382/4/5 381/4/5 380/4/5
f 383/4/5 381/4/5 382/4/5
f 386/4/5 385/4/5 384/4/5
f 387/4/5 385/4/5 386/4/5
f 390/2/5 389/2/5 388/2/5
f 391/2/5 389/2/5 390/2/5
f 394/4/5 393/4/5 392/4/5
f 395/4/5 393/4/5 394/4/5
f 398/4/5 397/4/5 396/4/5
f 399/4/5 397/4/5 398/4/5
f 402/4/5 401/4/5 400/4/5
f 403/4/5 401/4/5 402/4/5
f 408/4/5 405/4/5 404/4/5
f 409/4/5 405/4/5 408/4/5
f 410/4/5 407/4/5 406/4/5
f 411/4/5 407/4/5 410/4/5
f 416/4/5 413/4/5 412/4/5
f 417/4/5 413/4/5 416/4/5
f 418/4/5 415/4/5 414/4/5
f 419/4/5 415/4/5 418/4/5
f 422/2/5 421/2/5 420/2/5
f 423/2/5 421/2/5 422/2/5
f 426/2/5 425/2/5 424/2/5
f 427/2/5 425/2/5 426/2/5
f 428/2/6 429/2/6 432/2/6
f 432/2/6 429/2/6 433/2/6
f 430/4/6 431/4/6 434/4/6
f 434/4/6 431/4/6 435/4/6
f 436/2/6 437/2/6 440/2/6
f 440/2/6 437/2/6 441/2/6
f 438/4/6 439/4/6 442/4/6
f 442/4/6 439/4/6 443/4/6
f 444/2/6 445/2/6 446/2/6
f 446/2/6 445/2/6 447/2/6
f 448/4/6 449/4/6 450/4/6
f 450/4/6 449/4/6 451/4/6
f 452/3/6 453/3/6 455/3/6
f 455/3/6 453/3/6 456/3/6
f 454/4/6 455/4/6 457/4/6
f 457/4/6 455/4/6 458/4/6
f 459/2/6 460/2/6 461/2/6
f 461/2/6 460/2/6 462/2/6
f 463/4/6 464/4/6 467/4/6
f 467/4/6 464/4/6 468/4/6
f 465/3/6 466/3/6 469/3/6
f 469/3/6 466/3/6 470/3/6
f 468/3/6 469/3/6 471/3/6
f 471/3/6 469/3/6 472/3/6
f 473/4/6 474/4/6 478/4/6
f 478/4/6 474/4/6 479/4/6
f 475/2/6 476/2/6 480/2/6
f 476/3/6 477/3/6 481/3/6
f 480/2/6 476/2/6 481/2/6
f 477/2/6 478/2/6 482/2/6
f 481/3/6 477/3/6 482/3/6
f 482/2/6 478/2/6 483/2/6
f 481/2/6 482/2/6 484/2/6
f 484/2/6 482/2/6 485/2/6
f 485/3/6 486/3/6 487/3/6
f 487/3/6 486/3/6 488/3/6
f 489/4/6 490/4/6 491/4/6
f 491/4/6 490/4/6 492/4/6
f 493/4/6 494/4/6 497/4/6
f 497/4/6 494/4/6 498/4/6
f 495/4/6 496/4/6 499/4/6
f 499/4/6 496/4/6 500/4/6
f 501/4/6 502/4/6 505/4/6
f 505/4/6 502/4/6 506/4/6
f 503/4/6 504/4/6 507/4/6
f 507/4/6 504/4/6 508/4/6
f 509/2/6 510/2/6 511/2/6
f 511/2/6 510/2/6 512/2/6
f 513/2/6 514/2/6 515/2/6
f 515/2/6 514/2/6 516/2/6
