# MagicaVoxel @ Ephtracy

# group
o 

# material
mtllib r-1.mtl
usemtl palette

# normals
vn -1 0 0
vn 1 0 0
vn 0 0 1
vn 0 0 -1
vn 0 -1 0
vn 0 1 0

# texcoords
vt 0.306641 0.5
vt 0.498047 0.5
vt 0.541016 0.5
vt 0.544922 0.5
vt 0.548828 0.5

# verts
v -0.3 0 0.1
v -0.3 0 0
v -0.3 0 -0.2
v -0.3 0 -0.3
v -0.3 0.1 0.2
v -0.3 0.1 0.1
v -0.3 0.1 0
v -0.3 0.1 -0.2
v -0.3 0.1 -0.3
v -0.3 0.2 0.2
v -0.3 0.2 0.1
v -0.3 0.2 -0.1
v -0.3 0.2 -0.2
v -0.3 0.3 -0.1
v -0.3 0.3 -0.2
v -0.3 0.5 -0.2
v -0.3 0.5 -0.3
v -0.3 0.6 -0.2
v -0.3 0.6 -0.3
v -0.2 0 0
v -0.2 0 -0.1
v -0.2 0.1 0.1
v -0.2 0.1 0
v -0.2 0.1 -0.1
v -0.2 0.1 -0.2
v -0.2 0.2 0.2
v -0.2 0.2 0.1
v -0.2 0.2 0
v -0.2 0.2 -0.1
v -0.2 0.2 -0.2
v -0.2 0.3 0.2
v -0.2 0.3 0.1
v -0.2 0.3 0
v -0.2 0.3 -0.1
v -0.2 0.4 0.1
v -0.2 0.4 0
v -0.2 0.4 -0.1
v -0.2 0.5 0
v -0.2 0.5 -0.1
v -0.1 0 0.3
v -0.1 0 0.2
v -0.1 0 0.1
v -0.1 0 -0.1
v -0.1 0 -0.2
v -0.1 0.1 0.3
v -0.1 0.1 0.2
v -0.1 0.1 0.1
v -0.1 0.1 -0.1
v -0.1 0.1 -0.2
v -0.1 0.3 0.2
v -0.1 0.3 0.1
v -0.1 0.3 -0.1
v -0.1 0.3 -0.2
v -0.1 0.4 0.2
v -0.1 0.4 0.1
v -0.1 0.4 -0.1
v -0.1 0.4 -0.2
v 0 0.1 0.3
v 0 0.1 0.2
v 0 0.2 0.3
v 0 0.2 0.2
v 0 0.4 0.2
v 0 0.4 0.1
v 0 0.4 -0.1
v 0 0.4 -0.2
v 0 0.5 0.2
v 0 0.5 0.1
v 0 0.5 -0.1
v 0 0.5 -0.2
v 0.1 0.2 0.3
v 0.1 0.2 0.2
v 0.1 0.3 0.3
v 0.1 0.3 0.2
v 0.1 0.5 -0.1
v 0.1 0.5 -0.2
v 0.1 0.6 -0.1
v 0.1 0.6 -0.2
v 0.2 0.3 0.3
v 0.2 0.3 0.2
v 0.2 0.4 0.3
v 0.2 0.4 0.2
v 0.2 0.5 0.3
v 0.2 0.5 0.2
v 0.2 0.5 0.1
v 0.2 0.5 0
v 0.2 0.5 -0.2
v 0.2 0.5 -0.3
v 0.2 0.6 0.3
v 0.2 0.6 0.2
v 0.2 0.6 0.1
v 0.2 0.6 0
v 0.2 0.6 -0.2
v 0.2 0.6 -0.3
v -0.2 0.5 -0.2
v -0.2 0.5 -0.3
v -0.2 0.6 -0.2
v -0.2 0.6 -0.3
v -0.1 0 -0.2
v -0.1 0 -0.3
v -0.1 0.1 -0.2
v -0.1 0.1 -0.3
v -0.1 0.4 0
v -0.1 0.4 -0.1
v -0.1 0.5 0
v -0.1 0.5 -0.1
v 0 0 0.3
v 0 0 0.2
v 0 0.1 0.3
v 0 0.1 0.2
v 0.1 0 0.2
v 0.1 0 0.1
v 0.1 0 -0.1
v 0.1 0 -0.2
v 0.1 0.1 0.3
v 0.1 0.1 0.2
v 0.1 0.1 0.1
v 0.1 0.1 -0.1
v 0.1 0.1 -0.2
v 0.1 0.2 0.3
v 0.1 0.2 0.2
v 0.1 0.3 0.2
v 0.1 0.3 0.1
v 0.1 0.3 -0.1
v 0.1 0.3 -0.2
v 0.1 0.4 0.2
v 0.1 0.4 0.1
v 0.1 0.4 -0.1
v 0.1 0.4 -0.2
v 0.1 0.5 0.2
v 0.1 0.5 0.1
v 0.1 0.5 -0.1
v 0.1 0.5 -0.2
v 0.2 0 0.1
v 0.2 0 0
v 0.2 0 -0.1
v 0.2 0.1 0.2
v 0.2 0.1 0.1
v 0.2 0.1 0
v 0.2 0.1 -0.1
v 0.2 0.1 -0.2
v 0.2 0.2 0.3
v 0.2 0.2 0.2
v 0.2 0.2 0.1
v 0.2 0.2 0
v 0.2 0.2 -0.1
v 0.2 0.2 -0.2
v 0.2 0.3 0.3
v 0.2 0.3 0.2
v 0.2 0.3 0.1
v 0.2 0.3 -0.1
v 0.2 0.3 -0.2
v 0.2 0.4 0.1
v 0.2 0.4 0
v 0.2 0.4 -0.1
v 0.2 0.5 -0.1
v 0.2 0.5 -0.2
v 0.2 0.6 -0.1
v 0.2 0.6 -0.2
v 0.3 0.3 0.3
v 0.3 0.3 0.2
v 0.3 0.4 0.3
v 0.3 0.4 0.2
v 0.3 0.5 0.3
v 0.3 0.5 0.2
v 0.3 0.5 0.1
v 0.3 0.5 0
v 0.3 0.5 -0.2
v 0.3 0.5 -0.3
v 0.3 0.6 0.3
v 0.3 0.6 0.2
v 0.3 0.6 0.1
v 0.3 0.6 0
v 0.3 0.6 -0.2
v 0.3 0.6 -0.3
v -0.1 0 0.3
v -0.1 0.1 0.3
v 0 0 0.3
v 0 0.1 0.3
v 0 0.2 0.3
v 0.1 0.1 0.3
v 0.1 0.2 0.3
v 0.1 0.3 0.3
v 0.2 0.2 0.3
v 0.2 0.3 0.3
v 0.2 0.4 0.3
v 0.2 0.5 0.3
v 0.2 0.6 0.3
v 0.3 0.3 0.3
v 0.3 0.4 0.3
v 0.3 0.5 0.3
v 0.3 0.6 0.3
v -0.3 0.1 0.2
v -0.3 0.2 0.2
v -0.2 0.1 0.2
v -0.2 0.2 0.2
v -0.2 0.3 0.2
v -0.1 0.1 0.2
v -0.1 0.2 0.2
v -0.1 0.3 0.2
v -0.1 0.4 0.2
v 0 0 0.2
v 0 0.1 0.2
v 0 0.2 0.2
v 0 0.3 0.2
v 0 0.4 0.2
v 0 0.5 0.2
v 0.1 0 0.2
v 0.1 0.1 0.2
v 0.1 0.2 0.2
v 0.1 0.3 0.2
v 0.1 0.4 0.2
v 0.1 0.5 0.2
v 0.2 0.1 0.2
v 0.2 0.2 0.2
v -0.3 0 0.1
v -0.3 0.1 0.1
v -0.2 0 0.1
v -0.2 0.1 0.1
v -0.2 0.3 0.1
v -0.2 0.4 0.1
v -0.1 0 0.1
v -0.1 0.1 0.1
v -0.1 0.3 0.1
v -0.1 0.4 0.1
v 0.1 0 0.1
v 0.1 0.1 0.1
v 0.1 0.3 0.1
v 0.1 0.4 0.1
v 0.2 0 0.1
v 0.2 0.1 0.1
v 0.2 0.3 0.1
v 0.2 0.4 0.1
v 0.2 0.5 0.1
v 0.2 0.6 0.1
v 0.3 0.5 0.1
v 0.3 0.6 0.1
v -0.2 0.4 0
v -0.2 0.5 0
v -0.1 0.4 0
v -0.1 0.5 0
v -0.3 0.2 -0.1
v -0.3 0.3 -0.1
v -0.2 0.2 -0.1
v -0.2 0.3 -0.1
v 0 0.4 -0.1
v 0 0.5 -0.1
v 0.1 0.4 -0.1
v 0.1 0.5 -0.1
v 0.1 0.6 -0.1
v 0.2 0.5 -0.1
v 0.2 0.6 -0.1
v -0.3 0 -0.2
v -0.3 0.1 -0.2
v -0.3 0.5 -0.2
v -0.3 0.6 -0.2
v -0.2 0.1 -0.2
v -0.2 0.5 -0.2
v -0.2 0.6 -0.2
v -0.1 0 -0.2
v -0.1 0.1 -0.2
v 0.2 0.5 -0.2
v 0.2 0.6 -0.2
v 0.3 0.5 -0.2
v 0.3 0.6 -0.2
v 0.2 0.3 0.2
v 0.2 0.4 0.2
v 0.2 0.5 0.2
v 0.2 0.6 0.2
v 0.3 0.3 0.2
v 0.3 0.4 0.2
v 0.3 0.5 0.2
v 0.3 0.6 0.2
v -0.3 0.1 0.1
v -0.3 0.2 0.1
v -0.2 0.1 0.1
v -0.2 0.2 0.1
v 0 0.4 0.1
v 0 0.5 0.1
v 0.1 0.4 0.1
v 0.1 0.5 0.1
v -0.3 0 0
v -0.3 0.1 0
v -0.2 0 0
v -0.2 0.1 0
v 0.2 0.5 0
v 0.2 0.6 0
v 0.3 0.5 0
v 0.3 0.6 0
v -0.2 0 -0.1
v -0.2 0.1 -0.1
v -0.2 0.3 -0.1
v -0.2 0.4 -0.1
v -0.2 0.5 -0.1
v -0.1 0 -0.1
v -0.1 0.1 -0.1
v -0.1 0.3 -0.1
v -0.1 0.4 -0.1
v -0.1 0.5 -0.1
v 0.1 0 -0.1
v 0.1 0.1 -0.1
v 0.1 0.3 -0.1
v 0.1 0.4 -0.1
v 0.2 0 -0.1
v 0.2 0.1 -0.1
v 0.2 0.3 -0.1
v 0.2 0.4 -0.1
v -0.3 0.2 -0.2
v -0.3 0.3 -0.2
v -0.2 0.1 -0.2
v -0.2 0.2 -0.2
v -0.2 0.3 -0.2
v -0.1 0 -0.2
v -0.1 0.1 -0.2
v -0.1 0.2 -0.2
v -0.1 0.3 -0.2
v -0.1 0.4 -0.2
v 0 0 -0.2
v 0 0.1 -0.2
v 0 0.2 -0.2
v 0 0.3 -0.2
v 0 0.4 -0.2
v 0 0.5 -0.2
v 0.1 0 -0.2
v 0.1 0.1 -0.2
v 0.1 0.2 -0.2
v 0.1 0.3 -0.2
v 0.1 0.4 -0.2
v 0.1 0.5 -0.2
v 0.1 0.6 -0.2
v 0.2 0.1 -0.2
v 0.2 0.2 -0.2
v 0.2 0.3 -0.2
v 0.2 0.5 -0.2
v 0.2 0.6 -0.2
v -0.3 0 -0.3
v -0.3 0.1 -0.3
v -0.3 0.5 -0.3
v -0.3 0.6 -0.3
v -0.2 0.5 -0.3
v -0.2 0.6 -0.3
v -0.1 0 -0.3
v -0.1 0.1 -0.3
v 0.2 0.5 -0.3
v 0.2 0.6 -0.3
v 0.3 0.5 -0.3
v 0.3 0.6 -0.3
v -0.1 0 0.3
v 0 0 0.3
v -0.1 0 0.2
v 0 0 0.2
v 0.1 0 0.2
v -0.3 0 0.1
v -0.2 0 0.1
v -0.1 0 0.1
v 0.1 0 0.1
v 0.2 0 0.1
v -0.3 0 0
v -0.2 0 0
v -0.1 0 0
v 0 0 0
v 0.1 0 0
v 0.2 0 0
v -0.2 0 -0.1
v -0.1 0 -0.1
v 0 0 -0.1
v 0.1 0 -0.1
v 0.2 0 -0.1
v -0.3 0 -0.2
v -0.1 0 -0.2
v 0 0 -0.2
v 0.1 0 -0.2
v -0.3 0 -0.3
v -0.1 0 -0.3
v 0 0.1 0.3
v 0.1 0.1 0.3
v -0.3 0.1 0.2
v -0.2 0.1 0.2
v -0.1 0.1 0.2
v 0 0.1 0.2
v 0.1 0.1 0.2
v 0.2 0.1 0.2
v -0.3 0.1 0.1
v -0.2 0.1 0.1
v -0.1 0.1 0.1
v 0.1 0.1 0.1
v 0.2 0.1 0.1
v -0.2 0.1 -0.1
v -0.1 0.1 -0.1
v 0.1 0.1 -0.1
v 0.2 0.1 -0.1
v -0.2 0.1 -0.2
v -0.1 0.1 -0.2
v 0.1 0.1 -0.2
v 0.2 0.1 -0.2
v 0.1 0.2 0.3
v 0.2 0.2 0.3
v 0.1 0.2 0.2
v 0.2 0.2 0.2
v -0.3 0.2 -0.1
v -0.2 0.2 -0.1
v -0.3 0.2 -0.2
v -0.2 0.2 -0.2
v 0.2 0.3 0.3
v 0.3 0.3 0.3
v 0.2 0.3 0.2
v 0.3 0.3 0.2
v 0.2 0.5 0.3
v 0.3 0.5 0.3
v 0.2 0.5 0.2
v 0.3 0.5 0.2
v 0.2 0.5 0.1
v 0.3 0.5 0.1
v 0.2 0.5 0
v 0.3 0.5 0
v 0.1 0.5 -0.1
v 0.2 0.5 -0.1
v -0.3 0.5 -0.2
v -0.2 0.5 -0.2
v 0.1 0.5 -0.2
v 0.2 0.5 -0.2
v 0.3 0.5 -0.2
v -0.3 0.5 -0.3
v -0.2 0.5 -0.3
v 0.2 0.5 -0.3
v 0.3 0.5 -0.3
v -0.1 0.1 0.3
v 0 0.1 0.3
v -0.1 0.1 0.2
v 0 0.1 0.2
v -0.3 0.1 0.1
v -0.2 0.1 0.1
v -0.3 0.1 0
v -0.2 0.1 0
v -0.3 0.1 -0.2
v -0.2 0.1 -0.2
v -0.1 0.1 -0.2
v -0.3 0.1 -0.3
v -0.1 0.1 -0.3
v 0 0.2 0.3
v 0.1 0.2 0.3
v -0.3 0.2 0.2
v -0.2 0.2 0.2
v 0 0.2 0.2
v 0.1 0.2 0.2
v -0.3 0.2 0.1
v -0.2 0.2 0.1
v 0.1 0.3 0.3
v 0.2 0.3 0.3
v -0.2 0.3 0.2
v -0.1 0.3 0.2
v 0.1 0.3 0.2
v 0.2 0.3 0.2
v -0.2 0.3 0.1
v -0.1 0.3 0.1
v 0.1 0.3 0.1
v 0.2 0.3 0.1
v -0.3 0.3 -0.1
v -0.2 0.3 -0.1
v -0.1 0.3 -0.1
v 0.1 0.3 -0.1
v 0.2 0.3 -0.1
v -0.3 0.3 -0.2
v -0.2 0.3 -0.2
v -0.1 0.3 -0.2
v 0.1 0.3 -0.2
v 0.2 0.3 -0.2
v 0.2 0.4 0.3
v 0.3 0.4 0.3
v -0.1 0.4 0.2
v 0 0.4 0.2
v 0.2 0.4 0.2
v 0.3 0.4 0.2
v -0.2 0.4 0.1
v -0.1 0.4 0.1
v 0 0.4 0.1
v 0.1 0.4 0.1
v 0.2 0.4 0.1
v -0.2 0.4 0
v -0.1 0.4 0
v 0.1 0.4 0
v 0.2 0.4 0
v -0.1 0.4 -0.1
v 0 0.4 -0.1
v 0.1 0.4 -0.1
v 0.2 0.4 -0.1
v -0.1 0.4 -0.2
v 0 0.4 -0.2
v 0 0.5 0.2
v 0.1 0.5 0.2
v 0 0.5 0.1
v 0.1 0.5 0.1
v -0.2 0.5 0
v -0.1 0.5 0
v -0.2 0.5 -0.1
v -0.1 0.5 -0.1
v 0 0.5 -0.1
v 0.1 0.5 -0.1
v 0 0.5 -0.2
v 0.1 0.5 -0.2
v 0.2 0.6 0.3
v 0.3 0.6 0.3
v 0.2 0.6 0.2
v 0.3 0.6 0.2
v 0.2 0.6 0.1
v 0.3 0.6 0.1
v 0.2 0.6 0
v 0.3 0.6 0
v 0.1 0.6 -0.1
v 0.2 0.6 -0.1
v -0.3 0.6 -0.2
v -0.2 0.6 -0.2
v 0.1 0.6 -0.2
v 0.2 0.6 -0.2
v 0.3 0.6 -0.2
v -0.3 0.6 -0.3
v -0.2 0.6 -0.3
v 0.2 0.6 -0.3
v 0.3 0.6 -0.3

# faces
f 6/5/1 2/5/1 1/5/1
f 7/5/1 2/5/1 6/5/1
f 8/3/1 4/3/1 3/3/1
f 9/3/1 4/3/1 8/3/1
f 10/5/1 6/5/1 5/5/1
f 11/5/1 6/5/1 10/5/1
f 14/3/1 13/3/1 12/3/1
f 15/3/1 13/3/1 14/3/1
f 18/3/1 17/3/1 16/3/1
f 19/3/1 17/3/1 18/3/1
f 23/3/1 21/3/1 20/3/1
f 24/3/1 21/3/1 23/3/1
f 27/4/1 23/4/1 22/4/1
f 28/2/1 25/2/1 24/2/1
f 28/2/1 24/2/1 23/2/1
f 28/4/1 23/4/1 27/4/1
f 29/2/1 25/2/1 28/2/1
f 30/2/1 25/2/1 29/2/1
f 31/4/1 27/4/1 26/4/1
f 32/2/1 28/2/1 27/2/1
f 32/4/1 27/4/1 31/4/1
f 33/3/1 29/3/1 28/3/1
f 33/2/1 28/2/1 32/2/1
f 34/3/1 29/3/1 33/3/1
f 35/3/1 33/3/1 32/3/1
f 36/2/1 34/2/1 33/2/1
f 36/3/1 33/3/1 35/3/1
f 37/2/1 34/2/1 36/2/1
f 38/5/1 37/5/1 36/5/1
f 39/5/1 37/5/1 38/5/1
f 45/5/1 41/5/1 40/5/1
f 46/3/1 42/3/1 41/3/1
f 46/5/1 41/5/1 45/5/1
f 47/3/1 42/3/1 46/3/1
f 48/3/1 44/3/1 43/3/1
f 49/3/1 44/3/1 48/3/1
f 54/2/1 51/2/1 50/2/1
f 55/2/1 51/2/1 54/2/1
f 56/2/1 53/2/1 52/2/1
f 57/2/1 53/2/1 56/2/1
f 60/5/1 59/5/1 58/5/1
f 61/5/1 59/5/1 60/5/1
f 66/4/1 63/4/1 62/4/1
f 67/4/1 63/4/1 66/4/1
f 68/4/1 65/4/1 64/4/1
f 69/4/1 65/4/1 68/4/1
f 72/5/1 71/5/1 70/5/1
f 73/5/1 71/5/1 72/5/1
f 76/4/1 75/4/1 74/4/1
f 77/4/1 75/4/1 76/4/1
f 80/5/1 79/5/1 78/5/1
f 81/5/1 79/5/1 80/5/1
f 88/5/1 83/5/1 82/5/1
f 89/5/1 83/5/1 88/5/1
f 90/3/1 85/3/1 84/3/1
f 91/3/1 85/3/1 90/3/1
f 92/5/1 87/5/1 86/5/1
f 93/5/1 87/5/1 92/5/1
f 94/3/2 95/3/2 96/3/2
f 96/3/2 95/3/2 97/3/2
f 98/3/2 99/3/2 100/3/2
f 100/3/2 99/3/2 101/3/2
f 102/5/2 103/5/2 104/5/2
f 104/5/2 103/5/2 105/5/2
f 106/5/2 107/5/2 108/5/2
f 108/5/2 107/5/2 109/5/2
f 110/2/2 111/2/2 115/2/2
f 115/2/2 111/2/2 116/2/2
f 112/4/2 113/4/2 117/4/2
f 117/4/2 113/4/2 118/4/2
f 114/5/2 115/5/2 119/5/2
f 119/5/2 115/5/2 120/5/2
f 121/3/2 122/3/2 125/3/2
f 125/3/2 122/3/2 126/3/2
f 123/3/2 124/3/2 127/3/2
f 127/3/2 124/3/2 128/3/2
f 125/4/2 126/4/2 129/4/2
f 129/4/2 126/4/2 130/4/2
f 127/4/2 128/4/2 131/4/2
f 131/4/2 128/4/2 132/4/2
f 133/4/2 134/4/2 137/4/2
f 134/2/2 135/2/2 138/2/2
f 137/4/2 134/4/2 138/4/2
f 138/2/2 135/2/2 139/2/2
f 136/2/2 137/2/2 142/2/2
f 137/3/2 138/3/2 143/3/2
f 142/2/2 137/2/2 143/2/2
f 139/2/2 140/2/2 144/2/2
f 143/3/2 138/3/2 144/3/2
f 138/2/2 139/2/2 144/2/2
f 144/2/2 140/2/2 145/2/2
f 145/2/2 140/2/2 146/2/2
f 141/5/2 142/5/2 147/5/2
f 142/3/2 143/3/2 148/3/2
f 147/5/2 142/5/2 148/5/2
f 143/2/2 144/2/2 149/2/2
f 148/3/2 143/3/2 149/3/2
f 144/4/2 145/4/2 150/4/2
f 145/3/2 146/3/2 150/3/2
f 150/3/2 146/3/2 151/3/2
f 149/2/2 144/2/2 152/2/2
f 144/4/2 150/4/2 153/4/2
f 152/2/2 144/2/2 153/2/2
f 153/4/2 150/4/2 154/4/2
f 155/4/2 156/4/2 157/4/2
f 157/4/2 156/4/2 158/4/2
f 159/5/2 160/5/2 161/5/2
f 161/5/2 160/5/2 162/5/2
f 163/5/2 164/5/2 169/5/2
f 169/5/2 164/5/2 170/5/2
f 165/3/2 166/3/2 171/3/2
f 171/3/2 166/3/2 172/3/2
f 167/5/2 168/5/2 173/5/2
f 173/5/2 168/5/2 174/5/2
f 177/5/3 176/5/3 175/5/3
f 178/5/3 176/5/3 177/5/3
f 180/5/3 179/5/3 178/5/3
f 181/5/3 179/5/3 180/5/3
f 183/5/3 182/5/3 181/5/3
f 184/5/3 182/5/3 183/5/3
f 188/5/3 185/5/3 184/5/3
f 189/5/3 185/5/3 188/5/3
f 190/5/3 187/5/3 186/5/3
f 191/5/3 187/5/3 190/5/3
f 194/5/3 193/5/3 192/5/3
f 195/5/3 193/5/3 194/5/3
f 197/2/3 195/2/3 194/2/3
f 198/4/3 196/4/3 195/4/3
f 198/2/3 195/2/3 197/2/3
f 199/4/3 196/4/3 198/4/3
f 202/2/3 198/2/3 197/2/3
f 203/3/3 199/3/3 198/3/3
f 203/2/3 198/2/3 202/2/3
f 204/2/3 200/2/3 199/2/3
f 204/3/3 199/3/3 203/3/3
f 205/2/3 200/2/3 204/2/3
f 207/2/3 202/2/3 201/2/3
f 208/2/3 202/2/3 207/2/3
f 209/2/3 204/2/3 203/2/3
f 210/3/3 205/3/3 204/3/3
f 210/2/3 204/2/3 209/2/3
f 211/4/3 206/4/3 205/4/3
f 211/3/3 205/3/3 210/3/3
f 212/4/3 206/4/3 211/4/3
f 213/2/3 209/2/3 208/2/3
f 214/2/3 209/2/3 213/2/3
f 217/5/3 216/5/3 215/5/3
f 218/5/3 216/5/3 217/5/3
f 221/2/3 218/2/3 217/2/3
f 222/2/3 218/2/3 221/2/3
f 223/3/3 220/3/3 219/3/3
f 224/3/3 220/3/3 223/3/3
f 229/4/3 226/4/3 225/4/3
f 230/4/3 226/4/3 229/4/3
f 231/2/3 228/2/3 227/2/3
f 232/2/3 228/2/3 231/2/3
f 235/3/3 234/3/3 233/3/3
f 236/3/3 234/3/3 235/3/3
f 239/5/3 238/5/3 237/5/3
f 240/5/3 238/5/3 239/5/3
f 243/3/3 242/3/3 241/3/3
f 244/3/3 242/3/3 243/3/3
f 247/4/3 246/4/3 245/4/3
f 248/4/3 246/4/3 247/4/3
f 250/4/3 249/4/3 248/4/3
f 251/4/3 249/4/3 250/4/3
f 256/3/3 253/3/3 252/3/3
f 257/3/3 255/3/3 254/3/3
f 258/3/3 255/3/3 257/3/3
f 259/3/3 256/3/3 252/3/3
f 260/3/3 256/3/3 259/3/3
f 263/5/3 262/5/3 261/5/3
f 264/5/3 262/5/3 263/5/3
f 265/5/4 266/5/4 269/5/4
f 269/5/4 266/5/4 270/5/4
f 267/5/4 268/5/4 271/5/4
f 271/5/4 268/5/4 272/5/4
f 273/5/4 274/5/4 275/5/4
f 275/5/4 274/5/4 276/5/4
f 277/4/4 278/4/4 279/4/4
f 279/4/4 278/4/4 280/4/4
f 281/5/4 282/5/4 283/5/4
f 283/5/4 282/5/4 284/5/4
f 285/3/4 286/3/4 287/3/4
f 287/3/4 286/3/4 288/3/4
f 289/3/4 290/3/4 294/3/4
f 294/3/4 290/3/4 295/3/4
f 291/2/4 292/2/4 296/2/4
f 292/5/4 293/5/4 297/5/4
f 296/2/4 292/2/4 297/2/4
f 297/5/4 293/5/4 298/5/4
f 299/2/4 300/2/4 303/2/4
f 303/2/4 300/2/4 304/2/4
f 301/4/4 302/4/4 305/4/4
f 305/4/4 302/4/4 306/4/4
f 307/3/4 308/3/4 310/3/4
f 310/3/4 308/3/4 311/3/4
f 309/2/4 310/2/4 313/2/4
f 310/2/4 311/2/4 313/2/4
f 313/2/4 311/2/4 314/2/4
f 314/2/4 311/2/4 315/2/4
f 312/3/4 313/3/4 317/3/4
f 313/2/4 314/2/4 318/2/4
f 317/3/4 313/3/4 318/3/4
f 314/4/4 315/4/4 319/4/4
f 318/2/4 314/2/4 319/2/4
f 315/2/4 316/2/4 320/2/4
f 319/4/4 315/4/4 320/4/4
f 320/2/4 316/2/4 321/2/4
f 317/4/4 318/4/4 323/4/4
f 318/3/4 319/3/4 324/3/4
f 323/4/4 318/4/4 324/4/4
f 319/2/4 320/2/4 325/2/4
f 324/3/4 319/3/4 325/3/4
f 320/3/4 321/3/4 326/3/4
f 325/2/4 320/2/4 326/2/4
f 321/4/4 322/4/4 327/4/4
f 326/3/4 321/3/4 327/3/4
f 327/4/4 322/4/4 328/4/4
f 324/2/4 325/2/4 330/2/4
f 325/3/4 326/3/4 331/3/4
f 330/2/4 325/2/4 331/2/4
f 331/3/4 326/3/4 332/3/4
f 328/4/4 329/4/4 333/4/4
f 333/4/4 329/4/4 334/4/4
f 337/3/4 338/3/4 339/3/4
f 339/3/4 338/3/4 340/3/4
f 335/3/4 336/3/4 341/3/4
f 341/3/4 336/3/4 342/3/4
f 343/5/4 344/5/4 345/5/4
f 345/5/4 344/5/4 346/5/4
f 349/5/5 348/5/5 347/5/5
f 350/5/5 348/5/5 349/5/5
f 354/3/5 350/3/5 349/3/5
f 355/2/5 351/2/5 350/2/5
f 357/5/5 353/5/5 352/5/5
f 358/2/5 354/2/5 353/2/5
f 358/5/5 353/5/5 357/5/5
f 359/3/5 350/3/5 354/3/5
f 359/2/5 354/2/5 358/2/5
f 360/2/5 355/2/5 350/2/5
f 360/3/5 350/3/5 359/3/5
f 361/4/5 356/4/5 355/4/5
f 361/2/5 355/2/5 360/2/5
f 362/4/5 356/4/5 361/4/5
f 363/3/5 359/3/5 358/3/5
f 364/2/5 360/2/5 359/2/5
f 364/3/5 359/3/5 363/3/5
f 365/4/5 361/4/5 360/4/5
f 365/2/5 360/2/5 364/2/5
f 366/2/5 362/2/5 361/2/5
f 366/4/5 361/4/5 365/4/5
f 367/2/5 362/2/5 366/2/5
f 369/3/5 365/3/5 364/3/5
f 370/4/5 366/4/5 365/4/5
f 370/3/5 365/3/5 369/3/5
f 371/4/5 366/4/5 370/4/5
f 372/3/5 369/3/5 368/3/5
f 373/3/5 369/3/5 372/3/5
f 379/5/5 375/5/5 374/5/5
f 380/5/5 375/5/5 379/5/5
f 382/5/5 377/5/5 376/5/5
f 383/2/5 378/2/5 377/2/5
f 383/5/5 377/5/5 382/5/5
f 384/2/5 378/2/5 383/2/5
f 385/2/5 381/2/5 380/2/5
f 386/2/5 381/2/5 385/2/5
f 391/2/5 388/2/5 387/2/5
f 392/2/5 388/2/5 391/2/5
f 393/2/5 390/2/5 389/2/5
f 394/2/5 390/2/5 393/2/5
f 397/5/5 396/5/5 395/5/5
f 398/5/5 396/5/5 397/5/5
f 401/3/5 400/3/5 399/3/5
f 402/3/5 400/3/5 401/3/5
f 405/5/5 404/5/5 403/5/5
f 406/5/5 404/5/5 405/5/5
f 409/5/5 408/5/5 407/5/5
f 410/5/5 408/5/5 409/5/5
f 413/3/5 412/3/5 411/3/5
f 414/3/5 412/3/5 413/3/5
f 419/4/5 416/4/5 415/4/5
f 420/4/5 416/4/5 419/4/5
f 422/3/5 418/3/5 417/3/5
f 423/3/5 418/3/5 422/3/5
f 424/5/5 421/5/5 420/5/5
f 425/5/5 421/5/5 424/5/5
f 426/5/6 427/5/6 428/5/6
f 428/5/6 427/5/6 429/5/6
f 430/5/6 431/5/6 432/5/6
f 432/5/6 431/5/6 433/5/6
f 434/3/6 435/3/6 437/3/6
f 435/3/6 436/3/6 437/3/6
f 437/3/6 436/3/6 438/3/6
f 439/5/6 440/5/6 443/5/6
f 443/5/6 440/5/6 444/5/6
f 441/5/6 442/5/6 445/5/6
f 445/5/6 442/5/6 446/5/6
f 447/5/6 448/5/6 451/5/6
f 451/5/6 448/5/6 452/5/6
f 449/4/6 450/4/6 453/4/6
f 453/4/6 450/4/6 454/4/6
f 451/3/6 452/3/6 455/3/6
f 455/3/6 452/3/6 456/3/6
f 457/3/6 458/3/6 462/3/6
f 458/2/6 459/2/6 463/2/6
f 462/3/6 458/3/6 463/3/6
f 463/2/6 459/2/6 464/2/6
f 460/3/6 461/3/6 465/3/6
f 465/3/6 461/3/6 466/3/6
f 467/5/6 468/5/6 471/5/6
f 471/5/6 468/5/6 472/5/6
f 469/2/6 470/2/6 474/2/6
f 474/2/6 470/2/6 475/2/6
f 473/3/6 474/3/6 478/3/6
f 476/2/6 477/2/6 479/2/6
f 478/3/6 474/3/6 479/3/6
f 474/2/6 475/2/6 479/2/6
f 475/2/6 476/2/6 479/2/6
f 479/2/6 477/2/6 480/2/6
f 480/2/6 477/2/6 481/2/6
f 479/2/6 480/2/6 482/2/6
f 482/2/6 480/2/6 483/2/6
f 480/4/6 481/4/6 484/4/6
f 483/2/6 480/2/6 484/2/6
f 484/4/6 481/4/6 485/4/6
f 482/2/6 483/2/6 486/2/6
f 486/2/6 483/2/6 487/2/6
f 488/4/6 489/4/6 490/4/6
f 490/4/6 489/4/6 491/4/6
f 492/5/6 493/5/6 494/5/6
f 494/5/6 493/5/6 495/5/6
f 496/4/6 497/4/6 498/4/6
f 498/4/6 497/4/6 499/4/6
f 500/5/6 501/5/6 502/5/6
f 502/5/6 501/5/6 503/5/6
f 504/3/6 505/3/6 506/3/6
f 506/3/6 505/3/6 507/3/6
f 508/4/6 509/4/6 512/4/6
f 512/4/6 509/4/6 513/4/6
f 510/3/6 511/3/6 515/3/6
f 515/3/6 511/3/6 516/3/6
f 513/5/6 514/5/6 517/5/6
f 517/5/6 514/5/6 518/5/6
