# MagicaVoxel @ Ephtracy

# group
o 

# material
mtllib le-7-0.mtl
usemtl palette

# normals
vn -1 0 0
vn 1 0 0
vn 0 0 1
vn 0 0 -1
vn 0 -1 0
vn 0 1 0

# texcoords
vt 0.0214844 0.5
vt 0.111328 0.5
vt 0.982422 0.5

# verts
v -6.5 0.3 -3.7
v -6.5 0.3 -4.4
v -6.5 0.3 -4.6
v -6.5 0.3 -4.7
v -6.5 0.3 -5.6
v -6.5 0.3 -5.7
v -6.5 0.3 -5.9
v -6.5 0.3 -6.7
v -6.5 0.4 -3.7
v -6.5 0.4 -4.4
v -6.5 0.4 -4.6
v -6.5 0.4 -4.7
v -6.5 0.4 -5.6
v -6.5 0.4 -5.7
v -6.5 0.4 -5.9
v -6.5 0.4 -6.7
v -0.8 0.3 0.2
v -0.8 0.3 -3.7
v -0.8 0.3 -6.7
v -0.8 0.3 -10.4
v -0.8 0.4 0.2
v -0.8 0.4 -3.7
v -0.8 0.4 -6.7
v -0.8 0.4 -10.4
v 2.6 0.3 0.2
v 2.6 0.3 -3.7
v 2.6 0.3 -6.7
v 2.6 0.3 -10.4
v 2.6 0.4 0.2
v 2.6 0.4 -3.7
v 2.6 0.4 -6.7
v 2.6 0.4 -10.4
v 1.2 0.3 0.2
v 1.2 0.3 -3.7
v 1.2 0.3 -6.7
v 1.2 0.3 -10.4
v 1.2 0.4 0.2
v 1.2 0.4 -3.7
v 1.2 0.4 -6.7
v 1.2 0.4 -10.4
v 4.5 0.3 0.2
v 4.5 0.3 -3.7
v 4.5 0.3 -6.7
v 4.5 0.3 -10.4
v 4.5 0.4 0.2
v 4.5 0.4 -3.7
v 4.5 0.4 -6.7
v 4.5 0.4 -10.4
v 5.5 0.3 -3.7
v 5.5 0.3 -4.4
v 5.5 0.3 -4.6
v 5.5 0.3 -4.7
v 5.5 0.3 -5.6
v 5.5 0.3 -5.7
v 5.5 0.3 -5.9
v 5.5 0.3 -6.7
v 5.5 0.4 -3.7
v 5.5 0.4 -4.4
v 5.5 0.4 -4.6
v 5.5 0.4 -4.7
v 5.5 0.4 -5.6
v 5.5 0.4 -5.7
v 5.5 0.4 -5.9
v 5.5 0.4 -6.7
v -0.8 0.3 0.2
v -0.8 0.4 0.2
v 1.2 0.3 0.2
v 1.2 0.4 0.2
v 2.6 0.3 0.2
v 2.6 0.4 0.2
v 4.5 0.3 0.2
v 4.5 0.4 0.2
v -6.5 0.3 -3.7
v -6.5 0.4 -3.7
v -0.8 0.3 -3.7
v -0.8 0.4 -3.7
v 1.2 0.3 -3.7
v 1.2 0.4 -3.7
v 2.6 0.3 -3.7
v 2.6 0.4 -3.7
v 4.5 0.3 -3.7
v 4.5 0.4 -3.7
v 5.5 0.3 -3.7
v 5.5 0.4 -3.7
v -6.5 0.3 -6.7
v -6.5 0.4 -6.7
v -0.8 0.3 -6.7
v -0.8 0.4 -6.7
v 1.2 0.3 -6.7
v 1.2 0.4 -6.7
v 2.6 0.3 -6.7
v 2.6 0.4 -6.7
v 4.5 0.3 -6.7
v 4.5 0.4 -6.7
v 5.5 0.3 -6.7
v 5.5 0.4 -6.7
v -0.8 0.3 -10.4
v -0.8 0.4 -10.4
v 1.2 0.3 -10.4
v 1.2 0.4 -10.4
v 2.6 0.3 -10.4
v 2.6 0.4 -10.4
v 4.5 0.3 -10.4
v 4.5 0.4 -10.4
v -0.8 0.3 0.2
v 1.2 0.3 0.2
v 2.6 0.3 0.2
v 4.5 0.3 0.2
v -0.4 0.3 0
v 0.8 0.3 0
v 3 0.3 0
v 4.1 0.3 0
v -0.3 0.3 -0.1
v 0.7 0.3 -0.1
v 3.1 0.3 -0.1
v 4 0.3 -0.1
v -0.2 0.3 -0.2
v 0.6 0.3 -0.2
v 3.2 0.3 -0.2
v 3.9 0.3 -0.2
v -6.5 0.3 -3.7
v -0.8 0.3 -3.7
v 1.2 0.3 -3.7
v 2.6 0.3 -3.7
v 4.5 0.3 -3.7
v 5.5 0.3 -3.7
v -6.5 0.3 -4.4
v -0.4 0.3 -4.4
v 0.8 0.3 -4.4
v 3 0.3 -4.4
v 4.1 0.3 -4.4
v 5.5 0.3 -4.4
v -6.5 0.3 -4.6
v -0.3 0.3 -4.6
v 0.7 0.3 -4.6
v 3.1 0.3 -4.6
v 4 0.3 -4.6
v 5.5 0.3 -4.6
v -6.5 0.3 -4.7
v -0.2 0.3 -4.7
v 0.6 0.3 -4.7
v 3.2 0.3 -4.7
v 3.9 0.3 -4.7
v 5.5 0.3 -4.7
v -6.5 0.3 -5.6
v -0.2 0.3 -5.6
v 0.6 0.3 -5.6
v 3.2 0.3 -5.6
v 3.9 0.3 -5.6
v 5.5 0.3 -5.6
v -6.5 0.3 -5.7
v -0.3 0.3 -5.7
v 0.7 0.3 -5.7
v 3.1 0.3 -5.7
v 4 0.3 -5.7
v 5.5 0.3 -5.7
v -6.5 0.3 -5.9
v -0.4 0.3 -5.9
v 0.8 0.3 -5.9
v 3 0.3 -5.9
v 4.1 0.3 -5.9
v 5.5 0.3 -5.9
v -6.5 0.3 -6.7
v -0.8 0.3 -6.7
v 1.2 0.3 -6.7
v 2.6 0.3 -6.7
v 4.5 0.3 -6.7
v 5.5 0.3 -6.7
v -0.2 0.3 -9.9
v 0.6 0.3 -9.9
v 3.2 0.3 -9.9
v 3.9 0.3 -9.9
v -0.3 0.3 -10
v 0.7 0.3 -10
v 3.1 0.3 -10
v 4 0.3 -10
v -0.4 0.3 -10.1
v 0.8 0.3 -10.1
v 3 0.3 -10.1
v 4.1 0.3 -10.1
v -0.8 0.3 -10.4
v 1.2 0.3 -10.4
v 2.6 0.3 -10.4
v 4.5 0.3 -10.4
v -0.8 0.4 0.2
v 1.2 0.4 0.2
v 2.6 0.4 0.2
v 4.5 0.4 0.2
v -0.4 0.4 0
v 0.8 0.4 0
v 3 0.4 0
v 4.1 0.4 0
v -0.3 0.4 -0.1
v 0.7 0.4 -0.1
v 3.1 0.4 -0.1
v 4 0.4 -0.1
v -0.2 0.4 -0.2
v 0.6 0.4 -0.2
v 3.2 0.4 -0.2
v 3.9 0.4 -0.2
v -6.5 0.4 -3.7
v -0.8 0.4 -3.7
v 1.2 0.4 -3.7
v 2.6 0.4 -3.7
v 4.5 0.4 -3.7
v 5.5 0.4 -3.7
v -6.5 0.4 -4.4
v -0.4 0.4 -4.4
v 0.8 0.4 -4.4
v 3 0.4 -4.4
v 4.1 0.4 -4.4
v 5.5 0.4 -4.4
v -6.5 0.4 -4.6
v -0.3 0.4 -4.6
v 0.7 0.4 -4.6
v 3.1 0.4 -4.6
v 4 0.4 -4.6
v 5.5 0.4 -4.6
v -6.5 0.4 -4.7
v -0.2 0.4 -4.7
v 0.6 0.4 -4.7
v 3.2 0.4 -4.7
v 3.9 0.4 -4.7
v 5.5 0.4 -4.7
v -6.5 0.4 -5.6
v -0.2 0.4 -5.6
v 0.6 0.4 -5.6
v 3.2 0.4 -5.6
v 3.9 0.4 -5.6
v 5.5 0.4 -5.6
v -6.5 0.4 -5.7
v -0.3 0.4 -5.7
v 0.7 0.4 -5.7
v 3.1 0.4 -5.7
v 4 0.4 -5.7
v 5.5 0.4 -5.7
v -6.5 0.4 -5.9
v -0.4 0.4 -5.9
v 0.8 0.4 -5.9
v 3 0.4 -5.9
v 4.1 0.4 -5.9
v 5.5 0.4 -5.9
v -6.5 0.4 -6.7
v -0.8 0.4 -6.7
v 1.2 0.4 -6.7
v 2.6 0.4 -6.7
v 4.5 0.4 -6.7
v 5.5 0.4 -6.7
v -0.2 0.4 -9.9
v 0.6 0.4 -9.9
v 3.2 0.4 -9.9
v 3.9 0.4 -9.9
v -0.3 0.4 -10
v 0.7 0.4 -10
v 3.1 0.4 -10
v 4 0.4 -10
v -0.4 0.4 -10.1
v 0.8 0.4 -10.1
v 3 0.4 -10.1
v 4.1 0.4 -10.1
v -0.8 0.4 -10.4
v 1.2 0.4 -10.4
v 2.6 0.4 -10.4
v 4.5 0.4 -10.4

# faces
f 9/3/1 2/3/1 1/3/1
f 10/2/1 3/2/1 2/2/1
f 10/3/1 2/3/1 9/3/1
f 11/1/1 4/1/1 3/1/1
f 11/2/1 3/2/1 10/2/1
f 12/2/1 5/2/1 4/2/1
f 12/1/1 4/1/1 11/1/1
f 13/1/1 6/1/1 5/1/1
f 13/2/1 5/2/1 12/2/1
f 14/2/1 7/2/1 6/2/1
f 14/1/1 6/1/1 13/1/1
f 15/3/1 8/3/1 7/3/1
f 15/2/1 7/2/1 14/2/1
f 16/3/1 8/3/1 15/3/1
f 21/3/1 18/3/1 17/3/1
f 22/3/1 18/3/1 21/3/1
f 23/3/1 20/3/1 19/3/1
f 24/3/1 20/3/1 23/3/1
f 29/3/1 26/3/1 25/3/1
f 30/3/1 26/3/1 29/3/1
f 31/3/1 28/3/1 27/3/1
f 32/3/1 28/3/1 31/3/1
f 33/3/2 34/3/2 37/3/2
f 37/3/2 34/3/2 38/3/2
f 35/3/2 36/3/2 39/3/2
f 39/3/2 36/3/2 40/3/2
f 41/3/2 42/3/2 45/3/2
f 45/3/2 42/3/2 46/3/2
f 43/3/2 44/3/2 47/3/2
f 47/3/2 44/3/2 48/3/2
f 49/3/2 50/3/2 57/3/2
f 50/2/2 51/2/2 58/2/2
f 57/3/2 50/3/2 58/3/2
f 51/1/2 52/1/2 59/1/2
f 58/2/2 51/2/2 59/2/2
f 52/2/2 53/2/2 60/2/2
f 59/1/2 52/1/2 60/1/2
f 53/1/2 54/1/2 61/1/2
f 60/2/2 53/2/2 61/2/2
f 54/2/2 55/2/2 62/2/2
f 61/1/2 54/1/2 62/1/2
f 55/3/2 56/3/2 63/3/2
f 62/2/2 55/2/2 63/2/2
f 63/3/2 56/3/2 64/3/2
f 67/3/3 66/3/3 65/3/3
f 68/3/3 66/3/3 67/3/3
f 71/3/3 70/3/3 69/3/3
f 72/3/3 70/3/3 71/3/3
f 75/3/3 74/3/3 73/3/3
f 76/3/3 74/3/3 75/3/3
f 79/3/3 78/3/3 77/3/3
f 80/3/3 78/3/3 79/3/3
f 83/3/3 82/3/3 81/3/3
f 84/3/3 82/3/3 83/3/3
f 85/3/4 86/3/4 87/3/4
f 87/3/4 86/3/4 88/3/4
f 89/3/4 90/3/4 91/3/4
f 91/3/4 90/3/4 92/3/4
f 93/3/4 94/3/4 95/3/4
f 95/3/4 94/3/4 96/3/4
f 97/3/4 98/3/4 99/3/4
f 99/3/4 98/3/4 100/3/4
f 101/3/4 102/3/4 103/3/4
f 103/3/4 102/3/4 104/3/4
f 109/3/5 106/3/5 105/3/5
f 110/3/5 106/3/5 109/3/5
f 111/3/5 108/3/5 107/3/5
f 112/3/5 108/3/5 111/3/5
f 113/2/5 110/2/5 109/2/5
f 114/2/5 110/2/5 113/2/5
f 115/2/5 112/2/5 111/2/5
f 116/2/5 112/2/5 115/2/5
f 117/1/5 114/1/5 113/1/5
f 118/1/5 114/1/5 117/1/5
f 119/1/5 116/1/5 115/1/5
f 120/1/5 116/1/5 119/1/5
f 122/3/5 109/3/5 105/3/5
f 123/3/5 106/3/5 110/3/5
f 124/3/5 111/3/5 107/3/5
f 125/3/5 108/3/5 112/3/5
f 127/3/5 122/3/5 121/3/5
f 128/2/5 113/2/5 109/2/5
f 128/3/5 122/3/5 127/3/5
f 128/3/5 109/3/5 122/3/5
f 129/3/5 124/3/5 123/3/5
f 129/3/5 123/3/5 110/3/5
f 129/2/5 110/2/5 114/2/5
f 130/3/5 111/3/5 124/3/5
f 130/3/5 124/3/5 129/3/5
f 130/2/5 115/2/5 111/2/5
f 131/3/5 126/3/5 125/3/5
f 131/2/5 112/2/5 116/2/5
f 131/3/5 125/3/5 112/3/5
f 132/3/5 126/3/5 131/3/5
f 133/2/5 128/2/5 127/2/5
f 134/2/5 113/2/5 128/2/5
f 134/2/5 128/2/5 133/2/5
f 134/1/5 117/1/5 113/1/5
f 135/2/5 129/2/5 114/2/5
f 135/2/5 130/2/5 129/2/5
f 135/1/5 114/1/5 118/1/5
f 136/2/5 115/2/5 130/2/5
f 136/2/5 130/2/5 135/2/5
f 136/1/5 119/1/5 115/1/5
f 137/1/5 116/1/5 120/1/5
f 137/2/5 131/2/5 116/2/5
f 137/2/5 132/2/5 131/2/5
f 138/2/5 132/2/5 137/2/5
f 139/1/5 134/1/5 133/1/5
f 140/1/5 117/1/5 134/1/5
f 140/1/5 134/1/5 139/1/5
f 140/2/5 118/2/5 117/2/5
f 141/1/5 135/1/5 118/1/5
f 141/2/5 118/2/5 140/2/5
f 141/1/5 136/1/5 135/1/5
f 142/1/5 119/1/5 136/1/5
f 142/1/5 136/1/5 141/1/5
f 142/2/5 120/2/5 119/2/5
f 143/1/5 137/1/5 120/1/5
f 143/2/5 120/2/5 142/2/5
f 143/1/5 138/1/5 137/1/5
f 144/1/5 138/1/5 143/1/5
f 145/2/5 140/2/5 139/2/5
f 145/2/5 141/2/5 140/2/5
f 145/2/5 144/2/5 143/2/5
f 145/2/5 143/2/5 142/2/5
f 145/2/5 142/2/5 141/2/5
f 146/2/5 144/2/5 145/2/5
f 147/2/5 144/2/5 146/2/5
f 148/2/5 144/2/5 147/2/5
f 149/2/5 144/2/5 148/2/5
f 150/2/5 144/2/5 149/2/5
f 151/1/5 146/1/5 145/1/5
f 152/1/5 146/1/5 151/1/5
f 153/1/5 148/1/5 147/1/5
f 154/1/5 148/1/5 153/1/5
f 155/1/5 150/1/5 149/1/5
f 156/1/5 150/1/5 155/1/5
f 157/2/5 152/2/5 151/2/5
f 158/2/5 152/2/5 157/2/5
f 159/2/5 154/2/5 153/2/5
f 160/2/5 154/2/5 159/2/5
f 161/2/5 156/2/5 155/2/5
f 162/2/5 156/2/5 161/2/5
f 163/3/5 158/3/5 157/3/5
f 164/3/5 158/3/5 163/3/5
f 165/3/5 160/3/5 159/3/5
f 166/3/5 160/3/5 165/3/5
f 167/3/5 162/3/5 161/3/5
f 168/3/5 162/3/5 167/3/5
f 169/2/5 147/2/5 146/2/5
f 169/1/5 146/1/5 152/1/5
f 170/1/5 153/1/5 147/1/5
f 170/2/5 147/2/5 169/2/5
f 171/2/5 149/2/5 148/2/5
f 171/1/5 148/1/5 154/1/5
f 172/1/5 155/1/5 149/1/5
f 172/2/5 149/2/5 171/2/5
f 173/1/5 170/1/5 169/1/5
f 173/1/5 169/1/5 152/1/5
f 173/2/5 152/2/5 158/2/5
f 174/1/5 153/1/5 170/1/5
f 174/1/5 170/1/5 173/1/5
f 174/2/5 159/2/5 153/2/5
f 175/1/5 172/1/5 171/1/5
f 175/1/5 171/1/5 154/1/5
f 175/2/5 154/2/5 160/2/5
f 176/1/5 155/1/5 172/1/5
f 176/1/5 172/1/5 175/1/5
f 176/2/5 161/2/5 155/2/5
f 177/2/5 173/2/5 158/2/5
f 177/2/5 174/2/5 173/2/5
f 177/3/5 158/3/5 164/3/5
f 178/2/5 159/2/5 174/2/5
f 178/2/5 174/2/5 177/2/5
f 178/3/5 165/3/5 159/3/5
f 179/2/5 175/2/5 160/2/5
f 179/2/5 176/2/5 175/2/5
f 179/3/5 160/3/5 166/3/5
f 180/3/5 167/3/5 161/3/5
f 180/2/5 176/2/5 179/2/5
f 180/2/5 161/2/5 176/2/5
f 181/3/5 177/3/5 164/3/5
f 181/3/5 178/3/5 177/3/5
f 182/3/5 165/3/5 178/3/5
f 182/3/5 178/3/5 181/3/5
f 183/3/5 179/3/5 166/3/5
f 183/3/5 180/3/5 179/3/5
f 184/3/5 167/3/5 180/3/5
f 184/3/5 180/3/5 183/3/5
f 185/3/6 186/3/6 189/3/6
f 189/3/6 186/3/6 190/3/6
f 187/3/6 188/3/6 191/3/6
f 191/3/6 188/3/6 192/3/6
f 189/2/6 190/2/6 193/2/6
f 193/2/6 190/2/6 194/2/6
f 191/2/6 192/2/6 195/2/6
f 195/2/6 192/2/6 196/2/6
f 193/1/6 194/1/6 197/1/6
f 197/1/6 194/1/6 198/1/6
f 195/1/6 196/1/6 199/1/6
f 199/1/6 196/1/6 200/1/6
f 185/3/6 189/3/6 202/3/6
f 190/3/6 186/3/6 203/3/6
f 187/3/6 191/3/6 204/3/6
f 192/3/6 188/3/6 205/3/6
f 201/3/6 202/3/6 207/3/6
f 189/2/6 193/2/6 208/2/6
f 207/3/6 202/3/6 208/3/6
f 202/3/6 189/3/6 208/3/6
f 203/3/6 204/3/6 209/3/6
f 190/3/6 203/3/6 209/3/6
f 194/2/6 190/2/6 209/2/6
f 204/3/6 191/3/6 210/3/6
f 209/3/6 204/3/6 210/3/6
f 191/2/6 195/2/6 210/2/6
f 205/3/6 206/3/6 211/3/6
f 196/2/6 192/2/6 211/2/6
f 192/3/6 205/3/6 211/3/6
f 211/3/6 206/3/6 212/3/6
f 207/2/6 208/2/6 213/2/6
f 208/2/6 193/2/6 214/2/6
f 213/2/6 208/2/6 214/2/6
f 193/1/6 197/1/6 214/1/6
f 194/2/6 209/2/6 215/2/6
f 209/2/6 210/2/6 215/2/6
f 198/1/6 194/1/6 215/1/6
f 210/2/6 195/2/6 216/2/6
f 215/2/6 210/2/6 216/2/6
f 195/1/6 199/1/6 216/1/6
f 200/1/6 196/1/6 217/1/6
f 196/2/6 211/2/6 217/2/6
f 211/2/6 212/2/6 217/2/6
f 217/2/6 212/2/6 218/2/6
f 213/1/6 214/1/6 219/1/6
f 214/1/6 197/1/6 220/1/6
f 219/1/6 214/1/6 220/1/6
f 197/2/6 198/2/6 220/2/6
f 198/1/6 215/1/6 221/1/6
f 220/2/6 198/2/6 221/2/6
f 215/1/6 216/1/6 221/1/6
f 216/1/6 199/1/6 222/1/6
f 221/1/6 216/1/6 222/1/6
f 199/2/6 200/2/6 222/2/6
f 200/1/6 217/1/6 223/1/6
f 222/2/6 200/2/6 223/2/6
f 217/1/6 218/1/6 223/1/6
f 223/1/6 218/1/6 224/1/6
f 219/2/6 220/2/6 225/2/6
f 220/2/6 221/2/6 225/2/6
f 223/2/6 224/2/6 225/2/6
f 222/2/6 223/2/6 225/2/6
f 221/2/6 222/2/6 225/2/6
f 225/2/6 224/2/6 226/2/6
f 226/2/6 224/2/6 227/2/6
f 227/2/6 224/2/6 228/2/6
f 228/2/6 224/2/6 229/2/6
f 229/2/6 224/2/6 230/2/6
f 225/1/6 226/1/6 231/1/6
f 231/1/6 226/1/6 232/1/6
f 227/1/6 228/1/6 233/1/6
f 233/1/6 228/1/6 234/1/6
f 229/1/6 230/1/6 235/1/6
f 235/1/6 230/1/6 236/1/6
f 231/2/6 232/2/6 237/2/6
f 237/2/6 232/2/6 238/2/6
f 233/2/6 234/2/6 239/2/6
f 239/2/6 234/2/6 240/2/6
f 235/2/6 236/2/6 241/2/6
f 241/2/6 236/2/6 242/2/6
f 237/3/6 238/3/6 243/3/6
f 243/3/6 238/3/6 244/3/6
f 239/3/6 240/3/6 245/3/6
f 245/3/6 240/3/6 246/3/6
f 241/3/6 242/3/6 247/3/6
f 247/3/6 242/3/6 248/3/6
f 226/2/6 227/2/6 249/2/6
f 232/1/6 226/1/6 249/1/6
f 227/1/6 233/1/6 250/1/6
f 249/2/6 227/2/6 250/2/6
f 228/2/6 229/2/6 251/2/6
f 234/1/6 228/1/6 251/1/6
f 229/1/6 235/1/6 252/1/6
f 251/2/6 229/2/6 252/2/6
f 249/1/6 250/1/6 253/1/6
f 232/1/6 249/1/6 253/1/6
f 238/2/6 232/2/6 253/2/6
f 250/1/6 233/1/6 254/1/6
f 253/1/6 250/1/6 254/1/6
f 233/2/6 239/2/6 254/2/6
f 251/1/6 252/1/6 255/1/6
f 234/1/6 251/1/6 255/1/6
f 240/2/6 234/2/6 255/2/6
f 252/1/6 235/1/6 256/1/6
f 255/1/6 252/1/6 256/1/6
f 235/2/6 241/2/6 256/2/6
f 238/2/6 253/2/6 257/2/6
f 253/2/6 254/2/6 257/2/6
f 244/3/6 238/3/6 257/3/6
f 254/2/6 239/2/6 258/2/6
f 257/2/6 254/2/6 258/2/6
f 239/3/6 245/3/6 258/3/6
f 240/2/6 255/2/6 259/2/6
f 255/2/6 256/2/6 259/2/6
f 246/3/6 240/3/6 259/3/6
f 241/3/6 247/3/6 260/3/6
f 259/2/6 256/2/6 260/2/6
f 256/2/6 241/2/6 260/2/6
f 244/3/6 257/3/6 261/3/6
f 257/3/6 258/3/6 261/3/6
f 258/3/6 245/3/6 262/3/6
f 261/3/6 258/3/6 262/3/6
f 246/3/6 259/3/6 263/3/6
f 259/3/6 260/3/6 263/3/6
f 260/3/6 247/3/6 264/3/6
f 263/3/6 260/3/6 264/3/6
